<?xml version="1.0" encoding="UTF-8"?>
<svg id="Layer_1" data-name="Layer 1" xmlns="http://www.w3.org/2000/svg" viewBox="0 0 18 18">
  <defs>
    <style>
      .cls-1 {
        fill: #cfcfce;
        fill-rule: evenodd;
      }
    </style>
  </defs>
  <path class="cls-1" d="m9.16,9.92c-.5-.48-.59-1.99,0-2.64.08.05.13.18.18.26.28.57.34,1.25.12,1.84-.06.16-.19.45-.3.54h0Zm-3.74,0c-.55-.49-.57-2.06,0-2.63.29.27.43.92.43,1.42,0,.31-.21,1.03-.43,1.21h0Zm7.51,0c-.16-.07-.27-.41-.33-.57-.23-.7-.12-1.61.29-2.06.04.02.03,0,.1.11.21.34.34.77.34,1.19,0,.65-.22.91-.4,1.32h0Zm-3.28-3.15c.38-.25.76-.46,1.39-.46.44,0,1.12.19,1.37.47-.02.1-.05.1-.11.19-.04.06-.07.12-.11.19-.26.46-.37.88-.37,1.45,0,1.14.49,1.54.6,1.83-.05.07-.05.06-.14.12-.83.53-2.04.46-2.62-.12.11-.27.61-.71.61-1.83,0-1.1-.46-1.47-.61-1.83h0Zm-3.73,0c.6-.6,2.11-.62,2.75,0-.04.14-1.01,1.24-.42,2.87.16.44.25.48.42.78-.24.27-.88.48-1.4.48-.45,0-1.17-.21-1.36-.48.04-.09.17-.27.24-.39.49-.87.48-2.01-.01-2.89-.06-.11-.2-.28-.22-.37h0Zm7.47,0c.2-.19.75-.44,1.14-.46.55-.03.92.04,1.34.27,1.61.88,1.58,3.19,0,4.05-.4.22-.8.3-1.35.27-.33-.02-.99-.27-1.13-.47.13-.34.6-.69.6-1.85,0-.88-.3-1.23-.61-1.8h0Zm-8.46,3.65c-.17.2-.77.45-1.14.47-.56.03-.93-.04-1.34-.27-.62-.35-1.19-1.04-1.19-2.02,0-1.85,2.11-3,3.68-1.83-.04.1-.06.12-.13.21-.5.7-.62,1.84-.3,2.67.19.5.32.56.42.78h0Zm.49-4.15c-.22-.12-.39-.27-.66-.39-1.88-.84-4.17.48-4.17,2.72,0,1.27.75,2.2,1.59,2.65.5.27,1.08.38,1.75.31.31-.03.58-.12.83-.23.36-.17.51-.32.66-.39.12.06.29.19.4.26.12.07.29.15.43.2.69.26,1.45.25,2.14-.02.44-.17.64-.39.79-.45.7.63,1.95.84,2.93.46.47-.18.47-.26.79-.45.1.04.38.26.68.39,2.01.86,4.19-.6,4.17-2.76-.02-2.2-2.28-3.54-4.2-2.68-.27.12-.46.3-.65.38-.45-.34-1.09-.66-1.88-.65-.38,0-.74.08-1.05.2-.5.19-.56.33-.8.45-.13-.08-.23-.17-.39-.26-.97-.57-2.25-.51-3.17.14-.06.04-.11.09-.17.12h0Z"/>
</svg>