<?xml version="1.0" encoding="UTF-8"?>
<svg id="Layer_1" data-name="Layer 1" xmlns="http://www.w3.org/2000/svg" viewBox="0 0 18 18">
  <defs>
    <style>
      .cls-1 {
        fill: #cfcfce;
        fill-rule: evenodd;
      }
    </style>
  </defs>
  <path class="cls-1" d="m8.76,5.51c1.1-.11,2.02.4,2.6.89.28.24.59.65.76.99.19.38.35.85.38,1.35.14,2.04-1.38,3.6-3.25,3.75-1.46.12-2.76-.72-3.37-1.89-.7-1.36-.39-2.95.52-3.96.53-.59,1.27-1.03,2.36-1.14h0Zm-3.75.58c.1.05.15.14.25.18.08-.06.21-.23.28-.33.07-.08.27-.26.1-.38-.18-.14-.3.08-.37.16-.08.09-.25.26-.27.37h0Zm.45.35c.04.07.18.19.27.22.11-.11.19-.23.3-.35.07-.08.28-.27.11-.41-.18-.14-.31.1-.38.18-.08.09-.24.27-.29.36h0Zm9.25,3.07c-.26,2.37-1.74,4.13-3.71,4.87-.69.26-1.66.43-2.5.34-.87-.1-1.5-.29-2.18-.65-1.21-.64-2.2-1.77-2.67-3.06-.57-1.55-.44-3.23.32-4.69,1.03-1.97,3.28-3.23,5.56-3.01,2.23.22,4.09,1.66,4.85,3.71.26.71.42,1.63.33,2.49h0Zm-11.62-.13c.16,1.91.94,3.06,1.92,4.01,1.05,1.01,2.78,1.66,4.36,1.54,1.91-.15,3.09-.95,4.02-1.92,1.01-1.05,1.66-2.78,1.54-4.36-.15-1.91-.95-3.09-1.92-4.02-.43-.41-1.13-.87-1.82-1.14-.74-.29-1.63-.47-2.55-.4-1.52.1-3.04.81-4.01,1.92-1,1.14-1.68,2.71-1.54,4.36h0Zm2.65-.37h3.26s0,3.27,0,3.27c.35.07,1.08-.15,1.35-.28.74-.34,1.3-.9,1.64-1.64.12-.27.34-1,.28-1.35h-3.26s0-3.27,0-3.27c-.33-.08-1.09.16-1.35.28-.4.18-.73.43-.97.67-.24.24-.49.58-.67.97-.12.26-.35,1.01-.28,1.35h0Zm-1.16-2.81c.03-.07.57-.7.67-.82.18-.22.45-.39.67-.06.06.09.06.16.07.29.23-.11.41-.02.51.13.14.22,0,.41-.12.54-.07.08-.63.78-.71.83-.1-.06-1.03-.85-1.09-.91h0Zm6.84-.11c.04-.08.15-.21.22-.29.16-.2.55-.73.67-.85.08.04.18.18.22.25-.09.19-.45.54-.52.73l.83-.35.23.29-.51.75.81-.38c.07.06.18.19.22.27l-1.31.63c-.06-.04-.23-.25-.27-.33l.49-.74c-.23.05-.66.31-.85.32-.07-.08-.2-.23-.24-.31h0Zm-3.21-2.26h.43s.38.99.38.99c.06-.03.18-.41.22-.49.06-.17.13-.33.19-.5h.44s0,1.44,0,1.44h-.28s-.01-.97-.01-.97l-.37.97h-.31s-.27-.7-.27-.7c-.03-.09-.05-.17-.11-.22v.92s-.29,0-.29,0v-1.43h0Zm.49-.29c-.86.09-1.37.17-2.16.57-1.17.6-2.11,1.59-2.62,2.85-.29.72-.43,1.49-.39,2.37.04.79.27,1.55.58,2.15.16.31.34.59.52.83,1.58,2.07,4.47,2.8,6.85,1.59,1.19-.61,2.11-1.59,2.62-2.85.59-1.45.52-3.14-.19-4.52-.6-1.17-1.59-2.11-2.85-2.62-.64-.26-1.58-.46-2.36-.38h0Z"/>
</svg>