<?xml version="1.0" encoding="UTF-8"?>
<svg id="Layer_1" data-name="Layer 1" xmlns="http://www.w3.org/2000/svg" viewBox="0 0 18 18">
  <defs>
    <style>
      .cls-1 {
        fill: none;
      }

      .cls-1, .cls-2 {
        fill-rule: evenodd;
      }

      .cls-2 {
        fill: #cfcfce;
      }
    </style>
  </defs>
  <path class="cls-2" d="m1.3,9.17c-.19-1.24,1.82-2.01,2.91-2.32,1.42-.41,3.05-.57,4.64-.6,1.58-.02,3.28.16,4.7.53,3.97,1.03,4.39,3.2.25,4.39-1.39.4-3.09.59-4.63.6-1.62,0-3.22-.15-4.7-.53-1.17-.3-3-.99-3.16-2.06h0Zm-.34-.02c.14,1.19,2.01,1.93,3.26,2.28,2.89.81,6.94.79,9.82-.07,4.28-1.29,3.85-3.66-.26-4.78-2.92-.8-6.91-.8-9.8.07-1.15.34-3.18,1.17-3.02,2.51h0Z"/>
  <path class="cls-1" d="m12.22,9.51c-.07.22.06.11-.09.35-.3.48-.81.67-.77.2.03-.37.44-.81.68-.83.18-.01.24.12.19.28h0Zm.21.86c-.06-.17.19-.48.27-.61.13-.2,1.01-1.57,1.03-1.66h-.47s-.75,1.14-.75,1.14c-.03-.02,0,0-.03-.04-.04-.06-.02-.07-.08-.13-.04-.05-.08-.07-.15-.1-.62-.26-1.23.73-1.65.84-.31.08-.46-.24-.18-.55,0,0,0,.01,0,.02,0,0,0,.01,0,.02l.03.11c.12.34.69,0,.47-.36-.09-.15-.29-.2-.49-.1-.25.12-.28.27-.35.29-.02-.18-.03-.3-.17-.36-.14-.05-.3,0-.41.06-.26.14-.32.34-.54.48-.09-.18,0-.32-.18-.46-.1,0-.16.06-.23.1-.02.17.05.31.03.51-.05.46-.47.88-.78.71-.26-.15-.12-.55.02-.74.13-.18.33-.32.6-.41,0-.32-.33-.19-.52-.1-.43.19-.57.49-.75.88-.15.33-.55.42-.25.6.14-.06.2-.19.32-.24.07.09.16.48.66.45.68-.04.99-.93,1.45-1.3.05-.04.18-.15.26-.16.47-.07-.65,1.24-.61,1.43.1,0,.38.03.45-.03l.6-.89c.07.2.08.35.32.39.24.03.37-.11.52-.15.03.18-.03.28.06.47.25.49.77.18,1.02-.03.1.11.04.32.37.32.42,0,1.04-.65,1.15-.85-.03-.06-.06-.08-.12-.12-.2.08-.61.75-.93.62h0Z"/>
  <g>
    <path class="cls-2" d="m16.23,8.4c-1.16-1.55-5.53-2.05-8.04-1.91-1.56.09-2.92.24-4.31.68-.96.3-3.04,1.2-2.1,2.45.58.79,2.15,1.29,3.42,1.55,1.48.3,3.06.39,4.62.33,1.76-.06,4.59-.43,5.98-1.48.42-.32.95-.93.43-1.63Zm-10.37,2.07c-.57.35-1.35.22-1.52-.4-.24-.87.87-1.47.91-1.04-.01.06-.2.13-.34.28-.1.1-.19.27-.14.47.08.36.52.38.82.24.38-.17,1.08-.98,1.21-1.27-.32,0-.46.22-.62.17-.06-.21.3-.3.48-.34.43-.1.32,0,.55-.32.46-.63.83-.73.91-.83-.1-.05-.91-.16-1.07-.17-1.69-.06-1.52,1.46-.62.78.23-.17.16-.28.33-.27.05.15-.1.36-.17.46-.38.54-1.06.59-1.26.14-.18-.4.12-.8.3-.94,1.13-.89,2.98-.05,4.56-.08.21,0,.41-.02.62-.05.15-.02.4-.1.52-.05.1.25-.25.43-.44.51-.83.34-1.85-.17-2.54-.27-.03.1-.34.32-.49.45-.13.11-.33.33-.41.53l.55-.04c0-.18.01-.27.12-.38.25-.25.57,0,.4.31-.09.16-.17.12-.26.22.09.12.13.05.13.19-.19.1-.23-.14-.39-.15-.1,0-.43.03-.55.04-.26.02-.27.18-.54.6-.3.47-.63.95-1.07,1.22Zm7.5-.72c.06.04.09.06.12.12-.11.2-.73.85-1.15.85-.32,0-.27-.21-.37-.32-.26.21-.78.52-1.02.03-.09-.18-.03-.28-.06-.47-.15.05-.28.19-.52.15-.24-.03-.25-.19-.32-.39l-.6.89c-.07.07-.35.04-.45.03-.03-.19,1.09-1.5.61-1.43-.08.01-.2.12-.26.16-.46.37-.77,1.25-1.45,1.3-.5.03-.59-.35-.66-.45-.12.05-.18.18-.32.24-.3-.18.09-.27.25-.6.18-.39.32-.69.75-.88.19-.08.52-.22.52.1-.27.1-.47.24-.6.41-.14.19-.28.59-.02.74.31.17.73-.25.78-.71.02-.2-.04-.34-.03-.51.07-.04.13-.09.23-.1.18.14.1.28.18.46.21-.14.28-.34.54-.48.11-.06.27-.11.41-.06.14.05.15.18.17.36.07-.02.1-.17.35-.29.2-.09.41-.05.49.1.21.37-.36.7-.47.36l-.03-.11s0-.01,0-.02c0,0,0-.01,0-.02-.28.31-.14.63.18.55.42-.11,1.03-1.1,1.65-.84.07.03.11.06.15.1.06.06.04.07.08.13.02.04,0,.02.03.04l.75-1.13h.47c-.02.08-.91,1.45-1.03,1.66-.08.12-.33.44-.27.61.32.13.73-.54.93-.62Z"/>
    <path class="cls-2" d="m12.03,9.23c-.24.02-.64.46-.68.83-.04.47.47.28.77-.2.15-.24.02-.13.09-.35.05-.16,0-.29-.19-.28Z"/>
  </g>
</svg>