<?xml version="1.0" encoding="UTF-8"?>
<svg id="Layer_1" data-name="Layer 1" xmlns="http://www.w3.org/2000/svg" viewBox="0 0 18 18">
  <defs>
    <style>
      .cls-1 {
        fill: #cfcfce;
        fill-rule: evenodd;
      }
    </style>
  </defs>
  <path class="cls-1" d="m4.55,11.96c.59-1.08,8.5-4.72,5.7,0-.37.63-.72.74-1.69.72-1.29-.02-3.09-.13-4.01-.72h0Zm7.28.46c.19-.55.55-.83.86-1.28.3-.43.58-.9.86-1.41.52-.95,1.02-2.25,1.47-3,1.46.53,2.51,2.2,1.23,3.73-.71.85-2.83,1.77-4.42,1.95h0Zm1.67-6.45c-.14.45-.2.42-.63.68-.98.61-5.58,2.94-5.68,1.06-.02-.43.42-1.45.62-1.75.9-1.33,4.51-.33,5.7,0h0ZM2.9,11.25C-.12,10.19.82,6.2,6.16,5.61c-.17.47-.61.92-.9,1.36l-2.36,4.27h0Zm4.52-6.56c-2.42.25-5.5,1.04-6.71,3.11-.43.74-.43,1.67.04,2.48,2.01,3.5,10.79,4.12,14.87,1.55,5.16-3.25-.53-7.95-8.2-7.14h0Z"/>
</svg>