<?xml version="1.0" encoding="UTF-8"?>
<svg id="Layer_1" data-name="Layer 1" xmlns="http://www.w3.org/2000/svg" viewBox="0 0 18 18">
  <defs>
    <style>
      .cls-1 {
        fill: #cfcfce;
        fill-rule: evenodd;
      }
    </style>
  </defs>
  <path class="cls-1" d="m.85,8.36v2.25c.05.09.04.14.14.19.09.04.21.03.31.03h1.35c.3,0,.32-.03.52-.16.07-.04,1.66-1.01,1.69-1,.03,0,.96.94,1.06,1.04.12.12.19.12.41.12h1.05c.1,0,.44.03.49-.03,0-.06-.38-.41-.44-.47l-.92-.92c-.08-.08-.15-.15-.23-.23-.31-.31-.28-.21.09-.44.28-.18.66-.4.95-.57l.95-.57c.05-.03.1-.06.16-.1.04-.03.12-.08.17-.08.03.07.01,2.31.01,2.76,0,.12,0,.29,0,.4.03.28.29.24.55.24h1.6c.18,0,.63.02.77-.03.1-.04.86-.54.97-.62l1.93-1.25c.08-.05.17-.1.24-.16.08-.06.16-.1.24-.16.08-.05.16-.11.24-.16.05-.03.2-.15.25-.14.06.14-.03,2.54.03,2.59.04.03.41-.22.47-.25l.92-.55c.1-.06.14-.09.21-.16.09-.1.08-.2.11-.26v-2.33c-.05-.1-.04-.14-.14-.19-.08-.04-.19-.03-.29-.03h-.65c-.5,0-.42-.03-.79.2-.6.38-1.19.77-1.78,1.16-.79.51-1.59,1.05-2.38,1.54-.07.04-.74.5-.8.5-.04-.07-.02-1.52-.02-1.73v-1.32c0-.16-.03-.25-.13-.31-.11-.07-.67-.04-.84-.04h-1.76c-.16,0-.24.02-.35.09l-4.1,2.47c-.08.05-.49.31-.56.31-.03-.12.03-2.8-.02-2.9-.05-.01-.09.03-.13.05l-1.28.77c-.08.05-.15.1-.2.17-.08.11-.07.22-.09.28h0Z"/>
</svg>