<?xml version="1.0" encoding="UTF-8"?>
<svg id="Layer_1" data-name="Layer 1" xmlns="http://www.w3.org/2000/svg" viewBox="0 0 18 18">
  <defs>
    <style>
      .cls-1 {
        fill: #cfcfce;
        fill-rule: evenodd;
      }
    </style>
  </defs>
  <path class="cls-1" d="m15.6,12.53c-1.85-.2-1.21.3-3.08,1.07-3.21,1.32-7.45.65-9.45-1.74-1.52-1.81-1.42-4.27.08-6.03,1.68-1.97,5.89-2.39,6.18-2.01.16.21-.6,1.01-.86,1.34-.58.76-2.55,3.37-2.9,4.07-.65,1.31-.43,2.58,1.07,2.81.55.08,3.84.04,4.66.04.74,0,4.16.09,4.6-.04.69-.2,2.64-3.59-.12-6.52-.53-.56-1.86-1.56-2.89-1.79l-.39.54c1.27.61,1.85.89,2.59,1.81.63.78,1.1,2.08.93,3.46-.2,1.54-.62,1.22-3.19,1.22-1.47,0-3,.04-4.46,0-1.5-.04.03-1.89.53-2.63.88-1.29,1.87-2.6,2.85-3.78.59-.72.43-.9-.48-1.07-3.48-.66-7.96.19-9.79,3.09-1.49,2.36-.63,5.02.95,6.39,3.43,2.98,9.91,2.89,13.13-.22h0Z"/>
</svg>