<?xml version="1.0" encoding="utf-8"?>
<!-- Generator: Adobe Illustrator 27.3.1, SVG Export Plug-In . SVG Version: 6.00 Build 0)  -->
<svg version="1.1" id="Layer_1" xmlns="http://www.w3.org/2000/svg" xmlns:xlink="http://www.w3.org/1999/xlink" x="0px" y="0px"
	 viewBox="0 0 18 9.8" style="enable-background:new 0 0 18 9.8;" xml:space="preserve">
<style type="text/css">
	.st0{fill:#FFFFFF;stroke:#000000;stroke-width:0.01;stroke-miterlimit:10;}
	.st1{fill:#FFFFFF;}
</style>
<path d="M16.49,4.22c-0.08,0.04-0.16,0.09-0.25,0.13c-0.04,0.02-0.09,0.05-0.11-0.02c-0.04-0.11-0.04-0.13,0.05-0.16
	c0.14-0.06,0.29-0.12,0.44-0.18c0.01,0.17,0,0.33-0.12,0.45c-0.15,0.16-0.31,0.3-0.47,0.45c-0.03,0.03-0.06,0.08-0.06,0.13
	c-0.03,0.19-0.07,0.38-0.16,0.56c-0.13,0.24-0.31,0.4-0.59,0.41c-0.16,0.01-0.32,0.01-0.47-0.01c-0.18-0.03-0.3-0.16-0.39-0.31
	c-0.04-0.08-0.07-0.16-0.11-0.24c-0.03-0.06-0.01-0.09,0.06-0.1c0.06-0.01,0.13-0.02,0.18-0.04c0.05-0.02,0.08-0.08,0.1-0.13
	c-0.09,0.13-0.24,0.14-0.37,0.15c-0.97,0.06-1.93,0.2-2.87,0.4c-0.04,0.01-0.09,0.03-0.12,0.07c-0.07,0.07-0.15,0.13-0.25,0.13
	c-0.21,0.01-0.42,0-0.64,0c-0.01,0-0.03,0-0.04-0.01c-0.1-0.08-0.21-0.04-0.31-0.01C9.94,5.89,9.91,5.9,9.88,5.9
	C9.7,5.91,9.62,6.02,9.56,6.18C9.51,6.32,9.43,6.46,9.34,6.59c-0.17,0.24-0.42,0.37-0.71,0.4c-0.34,0.03-0.68,0.05-1-0.12
	C7.46,6.78,7.33,6.66,7.23,6.5C7.19,6.44,7.15,6.41,7.08,6.42C6.95,6.44,6.82,6.41,6.71,6.33C6.6,6.25,6.46,6.24,6.32,6.23
	C5.97,6.21,5.62,6.2,5.26,6.18c-0.04,0-0.09-0.01-0.13-0.02c0-0.01,0-0.02,0-0.03C5.17,6.12,5.22,6.1,5.26,6.1
	c0.15-0.01,0.3-0.01,0.44,0c0.33,0.01,0.66,0.02,0.99-0.05C6.77,6.03,6.85,6,6.92,5.96c0.03-0.02,0.04-0.08,0.04-0.12
	c0-0.01-0.07-0.04-0.1-0.04C6.76,5.82,6.66,5.85,6.55,5.86C6.36,5.88,6.17,5.9,5.98,5.9c-0.12,0-0.12-0.02-0.11-0.13
	c0.01-0.09-0.04-0.13-0.12-0.09C5.73,5.69,5.7,5.7,5.68,5.72C5.47,5.91,5.21,6,4.94,6.05C4.75,6.08,4.57,6.09,4.38,6.11
	c-0.07,0.01-0.13,0.03-0.2,0.05c-0.02,0-0.04,0.01-0.06,0C3.77,6.1,3.42,6.04,3.07,5.99c-0.01,0-0.02-0.01-0.05-0.02
	c0.5,0,0.98,0,1.46,0c0-0.01,0-0.01,0-0.02C4.4,5.94,4.32,5.93,4.24,5.93C3.68,5.9,3.12,5.89,2.55,5.86
	C2.28,5.84,2.01,5.79,1.74,5.75c-0.08-0.01-0.1-0.06-0.06-0.13c0.03-0.06,0.07-0.11,0.1-0.17c0.02-0.04,0.04-0.1,0.03-0.13
	C1.74,5.14,1.66,4.96,1.59,4.78C1.58,4.76,1.58,4.75,1.58,4.73C1.59,4.49,1.6,4.24,1.82,4.06c0.03-0.02,0.04-0.07,0.05-0.11
	c0.01-0.06,0-0.12,0-0.18c0.01-0.16,0.1-0.26,0.22-0.36c0.5-0.4,1.11-0.54,1.71-0.68C4.38,2.6,4.96,2.5,5.55,2.4
	c0.14-0.03,0.26-0.09,0.37-0.18C5.94,2.2,5.96,2.19,5.99,2.17c0.02,0.03,0.04,0.05,0.07,0.08C6.07,2.07,6.19,2,6.31,1.93
	c0.46-0.27,0.91-0.55,1.37-0.81c0.38-0.21,0.8-0.32,1.23-0.39c1.24-0.19,2.49-0.23,3.75-0.14c0.57,0.04,1.12,0.19,1.6,0.51
	c0.28,0.19,0.54,0.41,0.8,0.63c0.25,0.21,0.51,0.4,0.81,0.53c0.3,0.13,0.52,0.34,0.61,0.66c0.08,0.26,0.16,0.52,0.16,0.8
	c0,0.13-0.04,0.23-0.17,0.28c-0.11,0.04-0.22,0.1-0.33,0.14c-0.06,0.03-0.1,0.06-0.06,0.13c0.01,0.03,0.01,0.06,0.02,0.08
	c0.02,0.02,0.06,0.06,0.07,0.05c0.12-0.03,0.24-0.09,0.34-0.17C16.5,4.23,16.49,4.23,16.49,4.22z M11.18,5.31
	c-0.39,0.05-0.78,0.11-1.17,0.16c0.01,0.02,0.02,0.02,0.04,0.02c0.3-0.04,0.61-0.08,0.91-0.13C11.03,5.35,11.11,5.32,11.18,5.31
	c0.19-0.02,0.39-0.04,0.58-0.06c0.09-0.01,0.18-0.03,0.26-0.04c0-0.01,0-0.01,0-0.02C11.74,5.23,11.46,5.27,11.18,5.31z M7.8,4.84
	C7.78,4.87,7.75,4.9,7.75,4.93C7.72,5.06,7.69,5.18,7.67,5.31C7.64,5.76,7.7,6.18,8,6.54c0.11,0.13,0.26,0.23,0.42,0.28
	C8.4,6.8,8.37,6.78,8.34,6.77c-0.03-0.02-0.07-0.04-0.1-0.06C7.91,6.47,7.77,6.14,7.72,5.75C7.68,5.45,7.72,5.14,7.8,4.84
	C7.82,4.76,7.85,4.68,7.89,4.6c-0.01,0-0.02-0.01-0.03-0.01C7.83,4.67,7.81,4.76,7.8,4.84z M13.5,3.73
	c-0.06,0.01-0.11,0.02-0.17,0.03c-0.07,0.01-0.1-0.02-0.1-0.09c0-0.28,0-0.56-0.01-0.84c0-0.02-0.01-0.03-0.01-0.05
	c-0.02,0.03-0.03,0.06-0.03,0.09c0.01,0.26,0.02,0.52,0.02,0.78c0,0.11-0.01,0.12-0.12,0.14c-0.26,0.04-0.53,0.08-0.79,0.12
	c0.04,0.01,0.08,0,0.12,0c0.23-0.03,0.45-0.06,0.68-0.09c0.08-0.01,0.1,0.02,0.1,0.1c0,0.17,0.01,0.35,0.01,0.52
	c0,0.12,0,0.13-0.12,0.15c-0.78,0.13-1.57,0.26-2.35,0.4c-0.07,0.01-0.11-0.01-0.11-0.08c-0.01-0.25-0.01-0.5-0.02-0.74
	c0-0.21-0.01-0.42-0.01-0.63c-0.01,0-0.02,0-0.02,0c0,0.03,0,0.06,0,0.09c0.01,0.18,0.01,0.36,0.02,0.54
	c0.01,0.26,0.01,0.51,0.01,0.77c0,0.06-0.02,0.09-0.08,0.1c-0.13,0.02-0.25,0.04-0.37,0.07c-0.03,0.01-0.06,0.03-0.09,0.04
	c0,0.01,0.01,0.02,0.01,0.03c0.03,0,0.06,0,0.08,0c0.12-0.02,0.25-0.04,0.37-0.06c0.08-0.02,0.11,0.01,0.11,0.09
	c0,0.04,0,0.08,0,0.11c0.01-0.03,0.01-0.05,0.01-0.08c0-0.15,0-0.15,0.14-0.17c0.53-0.09,1.07-0.17,1.6-0.26
	c0.24-0.04,0.49-0.09,0.73-0.13c0.03,0,0.09,0.02,0.09,0.03c0,0.12-0.01,0.25-0.02,0.37c0.02,0,0.06-0.01,0.1-0.01
	c0.39-0.05,0.78-0.11,1.18-0.16c0.09-0.01,0.12-0.04,0.11-0.1c-0.03,0.02-0.06,0.05-0.1,0.06c-0.06,0.02-0.13,0.02-0.19,0.03
	C13.96,4.91,13.64,4.96,13.32,5c-0.07,0.01-0.1-0.01-0.09-0.09c0.01-0.07,0.01-0.14,0.01-0.2c0-0.08,0.03-0.11,0.11-0.12
	c0.39-0.08,0.78-0.17,1.18-0.26c0.02,0,0.05-0.02,0.06-0.01c0.05,0.03,0.07,0,0.1-0.02c0.03-0.02,0.08-0.01,0.12-0.02
	c0,0.03,0.01,0.07,0.01,0.1c-0.05,0.24-0.07,0.48-0.04,0.72c0.03,0.25,0.11,0.48,0.31,0.64c0.03,0.02,0.06,0.03,0.09,0.05
	c-0.05-0.07-0.11-0.11-0.16-0.17c-0.05-0.06-0.09-0.13-0.12-0.2c-0.15-0.36-0.13-0.74-0.04-1.11c0.03-0.12,0.07-0.23,0.11-0.35
	c-0.04,0.06-0.07,0.13-0.1,0.2c-0.03,0.07-0.09,0.08-0.15,0.07c-0.07-0.02-0.02-0.07-0.01-0.11c0.04-0.12,0.08-0.24,0.12-0.36
	c-0.01,0-0.01,0-0.02-0.01c-0.05,0.13-0.1,0.27-0.14,0.4c-0.02,0.07-0.05,0.11-0.12,0.12c-0.41,0.09-0.81,0.17-1.22,0.26
	c-0.07,0.01-0.1-0.01-0.1-0.08c0-0.19,0-0.38,0-0.57c0-0.07,0.04-0.1,0.1-0.11C13.39,3.76,13.44,3.74,13.5,3.73c0.07,0,0.13,0,0.2,0
	c0.18-0.02,0.37-0.04,0.55-0.06c0.07-0.01,0.15-0.02,0.2,0.06c0.05,0.08,0.02,0.16-0.04,0.23c0,0,0,0.01,0.01,0.02
	c0.1-0.03,0.15-0.1,0.14-0.19c-0.01-0.08-0.08-0.14-0.18-0.15c-0.03,0-0.05,0-0.08,0C14.03,3.66,13.77,3.7,13.5,3.73z M8.76,2.49
	c0.03-0.01,0.06-0.02,0.09-0.02c0.36-0.06,0.72-0.12,1.08-0.17c0.15-0.02,0.26-0.09,0.34-0.21c0.27-0.36,0.54-0.72,0.81-1.08
	c0.02-0.03,0.03-0.07,0.04-0.1c-0.03-0.01-0.07-0.02-0.1-0.02C10.41,0.89,9.79,0.9,9.17,0.91c-0.27,0.01-0.54,0.06-0.8,0.15
	C7.63,1.31,6.99,1.75,6.36,2.2C6.35,2.21,6.33,2.23,6.3,2.27C7.5,2.2,8.67,2.2,9.84,2.24c-0.03,0.03-0.07,0.04-0.1,0.05
	c-0.28,0.05-0.56,0.1-0.85,0.15C8.85,2.45,8.8,2.47,8.76,2.49C8.59,2.47,8.43,2.53,8.27,2.57C8.43,2.54,8.6,2.52,8.76,2.49z
	 M9.45,5.42c0-0.05,0-0.11,0-0.16C9.42,4.91,9.31,4.59,9.02,4.37C8.81,4.21,8.6,4.2,8.38,4.35c-0.21,0.15-0.33,0.36-0.4,0.6
	C7.86,5.41,7.86,5.87,8.14,6.28c0.27,0.4,0.72,0.41,1.02,0.03C9.38,6.05,9.44,5.74,9.45,5.42z M3.11,3.27c0,0.01,0,0.03,0,0.04
	c0.08,0,0.17,0,0.25,0c0.64,0.02,1.28,0.04,1.91,0.16c0.05,0.01,0.11-0.01,0.16-0.03c0.21-0.09,0.41-0.2,0.63-0.27
	c0.58-0.19,1.16-0.36,1.74-0.54c0.03-0.01,0.07-0.02,0.1-0.04C7.88,2.58,7.85,2.58,7.83,2.58C6.87,2.75,5.9,2.87,4.92,2.87
	c-0.38,0-0.74,0.06-1.11,0.15c-0.01,0-0.03,0.01-0.05,0.02C3.8,3.06,3.83,3.07,3.87,3.08c0,0.01,0,0.02,0,0.03
	C3.61,3.16,3.36,3.22,3.11,3.27z M11.11,1.82c0.07-0.02,0.11-0.05,0.17-0.05c0.21-0.03,0.42-0.01,0.62,0.06
	c0.14,0.05,0.26,0.13,0.29,0.29c0.01,0.06,0.04,0.07,0.09,0.07c0.14-0.01,0.27-0.03,0.41-0.03c0.07,0,0.1-0.03,0.08-0.11
	c-0.05-0.22-0.09-0.44-0.14-0.66c-0.04-0.15-0.09-0.3-0.15-0.44c-0.01-0.03-0.05-0.06-0.08-0.06c-0.32,0.01-0.63,0.07-0.86,0.32
	c-0.15,0.16-0.27,0.35-0.4,0.53C11.12,1.75,11.12,1.79,11.11,1.82z M10.02,2.4C10.01,2.4,10,2.39,9.99,2.39
	C9.91,2.4,9.82,2.42,9.74,2.43C9.06,2.55,8.37,2.65,7.7,2.8C7.08,2.95,6.47,3.16,5.86,3.34C5.72,3.39,5.58,3.46,5.44,3.52
	C5.38,3.55,5.36,3.59,5.39,3.64C5.4,3.66,5.45,3.67,5.48,3.67c0.04,0,0.08-0.01,0.12-0.02C6.13,3.5,6.65,3.34,7.2,3.29
	c0.03,0,0.05-0.02,0.07-0.03C7.49,3.18,7.7,3.08,7.91,3.01C8.46,2.82,9.04,2.75,9.6,2.64c0.1-0.02,0.21-0.05,0.3-0.09
	C9.97,2.53,10.02,2.48,10.02,2.4z M12.8,0.88c0.01,0.03,0.01,0.04,0.01,0.05c0.19,0.35,0.31,0.71,0.41,1.09
	c0.02,0.06,0.05,0.07,0.11,0.07c0.24-0.01,0.48-0.01,0.72-0.02c0.13,0,0.14-0.02,0.1-0.13c-0.08-0.23-0.18-0.45-0.26-0.68
	c-0.03-0.1-0.1-0.15-0.19-0.2c-0.26-0.12-0.53-0.17-0.81-0.2C12.86,0.87,12.83,0.87,12.8,0.88z M15.88,4.8
	c-0.02-0.18-0.03-0.31-0.05-0.44c-0.03-0.16-0.09-0.3-0.21-0.42c-0.16-0.15-0.31-0.14-0.45,0.03c-0.02,0.02-0.04,0.05-0.05,0.07
	c-0.21,0.37-0.24,0.76-0.14,1.16c0.03,0.11,0.09,0.22,0.17,0.3c0.17,0.2,0.37,0.19,0.53-0.02c0.04-0.06,0.08-0.13,0.1-0.19
	C15.82,5.11,15.85,4.93,15.88,4.8z M15.74,2.5c-0.03-0.03-0.04-0.04-0.05-0.05c-0.21-0.09-0.41-0.19-0.62-0.28
	c-0.04-0.02-0.08-0.02-0.12-0.02c-0.49,0-0.98,0.01-1.47,0.01c-0.1,0-0.2,0.01-0.3,0.01c-0.06,0-0.08,0.03-0.06,0.09
	c0.04,0.09,0.06,0.18,0.1,0.27c0.01,0.03,0.05,0.06,0.08,0.06c0.38-0.02,0.77-0.04,1.15-0.06c0.03,0,0.06-0.02,0.08-0.04
	c0.09-0.11,0.22-0.15,0.35-0.12C14.92,2.4,14.96,2.43,15,2.45c0,0.01-0.01,0.02-0.01,0.03c-0.12-0.01-0.24-0.04-0.36,0.03
	c0.03,0.01,0.07,0.02,0.1,0.02c0.14,0,0.27-0.01,0.41-0.02c0.1,0,0.11,0.01,0.11,0.11c-0.01,0.31-0.12,0.58-0.28,0.84
	c-0.04,0.06-0.07,0.13-0.1,0.2c0.01,0,0.02,0.01,0.03,0.01c0.08-0.22,0.27-0.39,0.31-0.63c0.02-0.14,0.06-0.27,0.08-0.41
	c0.02-0.12,0.01-0.12,0.14-0.13C15.51,2.5,15.61,2.5,15.74,2.5z M7.35,3.28C7.38,3.3,7.39,3.31,7.4,3.31
	c0.16,0.02,0.31,0.02,0.47-0.02c0.27-0.08,0.55-0.16,0.83-0.2C9.27,3,9.84,2.94,10.41,2.87c0.07-0.01,0.09-0.03,0.06-0.09
	c-0.05-0.16-0.06-0.32,0.03-0.48c0.04-0.06,0.01-0.08-0.06-0.09c-0.17-0.01-0.27,0.06-0.33,0.22C10.08,2.55,10,2.63,9.88,2.66
	C9.78,2.69,9.67,2.71,9.56,2.73C8.93,2.84,8.3,2.94,7.7,3.14C7.59,3.18,7.48,3.23,7.35,3.28z M2.27,3.55c0,0.01,0.01,0.03,0.01,0.04
	c0.04,0,0.09,0.01,0.13,0.01c0.62,0.02,1.24,0.04,1.87,0.07c0.18,0.01,0.38,0.02,0.55,0.07c0.14,0.04,0.25,0.03,0.38,0
	C5.29,3.72,5.29,3.68,5.3,3.62c0-0.06-0.02-0.09-0.08-0.09c-0.03,0-0.06-0.01-0.1-0.01C4.38,3.47,3.64,3.42,2.9,3.38
	C2.78,3.38,2.66,3.39,2.54,3.42C2.45,3.44,2.36,3.51,2.27,3.55z M7.56,4.21c0.1,0.02,0.15-0.04,0.19-0.09
	c0.07-0.07,0.13-0.15,0.2-0.22c0.3-0.31,0.65-0.48,1.1-0.39C9.16,3.54,9.27,3.5,9.36,3.44c0.08-0.05,0.08-0.11,0-0.14
	C9.22,3.25,9.08,3.19,8.94,3.19c-0.39-0.01-0.75,0.09-1.1,0.27C7.8,3.48,7.77,3.52,7.74,3.55c-0.04,0.04-0.07,0.09-0.1,0.13
	C7.63,3.71,7.61,3.73,7.59,3.77C7.63,3.78,7.67,3.78,7.7,3.79C7.74,3.96,7.56,4.05,7.56,4.21z M11.05,2.43
	c0,0.09,0.04,0.14,0.11,0.16c0.07,0.03,0.13,0.07,0.2,0.1c0.05,0.02,0.11,0.04,0.16,0.04c0.29-0.02,0.58-0.05,0.87-0.08
	c0.05,0,0.07-0.02,0.08-0.07c0.01-0.04,0.03-0.09,0.06-0.1c0.13-0.06,0.28-0.08,0.42-0.02c0.02,0.01,0.04,0.01,0.06,0.02
	C13,2.5,12.99,2.51,12.98,2.52c-0.07,0-0.15-0.01-0.22,0c-0.07,0.01-0.14,0.03-0.21,0.04c0,0.01,0,0.02,0,0.03
	c0.02,0,0.05,0.01,0.07,0c0.11-0.01,0.23-0.02,0.34-0.03c0.02,0,0.05,0.02,0.07,0.03c0.03,0.01,0.05,0.02,0.08,0.03
	c0.01-0.02,0.03-0.05,0.02-0.07c-0.03-0.09-0.07-0.17-0.1-0.26c-0.03-0.07-0.08-0.09-0.15-0.09c-0.18,0.02-0.36,0.04-0.55,0.06
	c-0.1,0.01-0.2,0.02-0.28,0.09c-0.03,0.02-0.08,0.03-0.12,0.03c-0.25,0.01-0.5,0.02-0.75,0.03C11.15,2.42,11.1,2.43,11.05,2.43z
	 M4,4.85C4.19,4.85,4.37,4.8,4.53,4.71c0.13-0.07,0.23-0.17,0.3-0.31C4.88,4.3,4.87,4.29,4.76,4.3C4.43,4.3,4.1,4.31,3.78,4.32
	c-0.07,0-0.16,0.02-0.18-0.09c0-0.01-0.03-0.02-0.04-0.03C3.49,4.18,3.5,4.12,3.52,4.08c0.01-0.02,0.06-0.03,0.09-0.03
	c0.4,0,0.79,0.01,1.19,0.01c0.04,0,0.08-0.01,0.12-0.02c0-0.01,0-0.03,0-0.04C4.88,4,4.85,3.98,4.81,3.98
	C4.43,3.96,4.05,3.94,3.68,3.92c-0.09,0-0.18-0.02-0.25-0.09C3.35,3.76,3.25,3.72,3.15,3.75C3.14,3.87,3.11,3.97,3.1,4.08
	C3.1,4.19,3,4.23,2.94,4.29c-0.05,0.05-0.09,0-0.13,0C2.61,4.27,2.42,4.25,2.23,4.24c-0.03,0-0.05,0.02-0.08,0.03
	c0,0.01,0,0.02,0,0.03C2.2,4.31,2.24,4.33,2.28,4.33c0.14,0.03,0.27,0.06,0.41,0.07c0.1,0.01,0.17,0.05,0.23,0.13
	c0.04,0.05,0.12,0.09,0.17,0.13C3.03,4.59,2.96,4.53,2.9,4.46c-0.02-0.02-0.02-0.07,0-0.09c0.06-0.1,0.2-0.13,0.3-0.06
	c0.03,0.02,0.07,0.04,0.1,0.06c0.01-0.01,0.02-0.02,0.02-0.03C3.3,4.3,3.26,4.28,3.24,4.25C3.21,4.21,3.16,4.16,3.16,4.11
	c-0.01-0.08,0-0.16,0.01-0.24c0.01-0.08,0.04-0.1,0.11-0.05c0.14,0.08,0.22,0.34,0.15,0.5C3.39,4.41,3.35,4.49,3.29,4.59
	c0.04-0.03,0.06-0.04,0.08-0.06c0.05-0.08,0.12-0.09,0.2-0.09c0.39-0.03,0.78-0.05,1.18-0.08c0.02,0,0.04,0.01,0.06,0.01
	C4.64,4.72,4.32,4.78,4,4.85z M3.93,5.1c0-0.06,0-0.11-0.01-0.17C3.91,4.91,3.87,4.87,3.84,4.87C3.39,4.84,2.93,4.81,2.48,4.78
	C2.42,4.77,2.4,4.8,2.4,4.85c0,0.07,0,0.15,0,0.22c0,0.12,0.01,0.13,0.12,0.14C2.92,5.24,3.32,5.27,3.71,5.3
	C3.97,5.32,3.92,5.32,3.93,5.1z M6.51,3.73c0.33-0.1,0.68-0.2,1.03-0.3c0-0.01,0-0.02-0.01-0.03C7.19,3.35,6.87,3.49,6.55,3.57
	C6.23,3.66,5.9,3.75,5.63,3.95c0.15-0.26,0.45-0.24,0.68-0.37c-0.02,0-0.03,0-0.04,0c-0.2,0.05-0.4,0.11-0.6,0.16
	C5.65,3.75,5.63,3.78,5.61,3.8C5.52,3.94,5.43,4.09,5.34,4.24C5.32,4.27,5.31,4.3,5.3,4.33c0.02,0.01,0.03,0.02,0.05,0.04
	c0.01-0.03,0.02-0.06,0.04-0.09C5.44,4.22,5.5,4.16,5.55,4.1c0.1-0.11,0.22-0.21,0.37-0.24c0.03-0.01,0.07,0,0.11-0.01
	C5.97,4.02,5.9,4.16,5.87,4.34C5.9,4.32,5.91,4.31,5.91,4.31c0.07-0.14,0.13-0.28,0.2-0.41c0.01-0.03,0.02-0.08,0.04-0.08
	c0.08-0.03,0.17-0.04,0.28-0.07C6.37,3.92,6.33,4.07,6.28,4.22c0.01,0,0.03,0.01,0.04,0.01C6.38,4.07,6.48,3.92,6.51,3.73z
	 M4.63,4.79C4.66,4.8,4.68,4.81,4.69,4.81c0.17-0.02,0.35-0.02,0.52-0.07c0.5-0.13,1-0.28,1.5-0.43C7,4.21,7.29,4.09,7.54,3.89
	c0.02-0.02,0.03-0.04,0.04-0.07c-0.02,0.01-0.05,0-0.07,0.02c-0.17,0.1-0.33,0.23-0.52,0.28c-0.4,0.13-0.81,0.22-1.21,0.33
	c-0.15,0.04-0.29,0.1-0.44,0.16C5.3,4.62,5.26,4.65,5.22,4.67C5.16,4.7,5.08,4.7,5.04,4.64c-0.05-0.06,0-0.12,0.04-0.17
	C5.1,4.43,5.12,4.4,5.14,4.37C5.14,4.36,5.13,4.36,5.12,4.35C4.96,4.49,4.8,4.64,4.63,4.79z M12.92,2.13
	c0.06-0.01,0.11-0.01,0.16-0.02c0.08,0,0.09-0.04,0.07-0.11c-0.1-0.36-0.23-0.71-0.4-1.04c-0.01-0.02-0.02-0.06-0.04-0.07
	c-0.04-0.02-0.09-0.02-0.14-0.03c0,0.03-0.02,0.06-0.01,0.08c0.14,0.35,0.22,0.72,0.27,1.09C12.85,2.1,12.87,2.14,12.92,2.13z
	 M13.96,1.24c0,0.01,0,0.02,0.01,0.03c0.09,0.25,0.18,0.49,0.28,0.74c0.01,0.03,0.06,0.05,0.09,0.05c0.12,0.01,0.24,0.01,0.35,0.01
	c0.04,0,0.07-0.01,0.13-0.01C14.58,1.71,14.29,1.46,13.96,1.24z M10.37,2.13c0.14,0.03,0.22-0.02,0.3-0.13
	c0.17-0.25,0.36-0.49,0.53-0.74c0.22-0.31,0.51-0.5,0.89-0.54c0.02,0,0.05-0.01,0.07-0.02c-0.01-0.01-0.03-0.02-0.04-0.02
	c-0.05,0-0.11,0-0.16,0.01c-0.31,0.05-0.6,0.13-0.81,0.4c-0.25,0.33-0.51,0.65-0.76,0.97C10.39,2.09,10.38,2.11,10.37,2.13z
	 M10.97,2.08c0.33-0.04,0.66-0.02,0.97-0.14c-0.21-0.13-0.44-0.14-0.66-0.1C11.16,1.86,11.03,1.93,10.97,2.08z M9.85,5.61
	c0,0.01,0,0.02,0,0.03c1.48-0.21,2.95-0.42,4.43-0.63c0-0.01,0-0.02,0-0.02C12.8,5.19,11.32,5.4,9.85,5.61z M8.4,3.73
	c0.02-0.01,0.04-0.01,0.07-0.02c0.3-0.12,0.57-0.06,0.82,0.14c0.23,0.2,0.38,0.45,0.46,0.74C9.82,4.86,9.83,5.13,9.82,5.4
	c0,0.04,0.01,0.07,0.01,0.11C9.86,5.5,9.87,5.49,9.87,5.48c-0.01-0.24,0-0.48-0.03-0.72c-0.05-0.38-0.22-0.7-0.52-0.95
	C9.05,3.58,8.66,3.55,8.4,3.73z M10.57,2.31c0.01,0,0.02,0.01,0.03,0.01c0.01-0.01,0.01-0.02,0.02-0.03
	c0.25-0.34,0.51-0.69,0.76-1.03c0.19-0.25,0.43-0.41,0.74-0.44c0.28-0.02,0.56-0.02,0.84-0.03c0.04,0,0.07,0.01,0.11,0.01
	c0.03,0,0.06,0,0.1,0c-0.4-0.07-0.8-0.07-1.2,0.02c-0.19,0.04-0.36,0.12-0.48,0.27c-0.23,0.29-0.46,0.58-0.68,0.87
	C10.71,2.08,10.64,2.2,10.57,2.31z M7.98,4.13C7.97,4.12,7.97,4.11,7.96,4.11C7.93,4.13,7.9,4.16,7.88,4.19
	c-0.19,0.25-0.3,0.54-0.36,0.85C7.47,5.32,7.46,5.61,7.48,5.89c0,0.07-0.02,0.1-0.09,0.11C7.29,6.02,7.2,6.03,7.1,6.05
	C7.04,6.06,6.98,6.07,6.92,6.08c0.16,0,0.32-0.01,0.49-0.03C7.52,6.03,7.53,6.01,7.53,5.9c0.01-0.28,0.01-0.56,0.04-0.83
	c0.04-0.32,0.16-0.63,0.38-0.88C7.96,4.17,7.97,4.15,7.98,4.13z M7.5,3.62c-0.14,0.1-0.22,0.26-0.4,0.32
	c0.09-0.16,0.22-0.29,0.35-0.42c0-0.01-0.01-0.01-0.01-0.02C7.33,3.54,7.22,3.57,7.08,3.61C7.17,3.66,7.15,3.7,7.12,3.75
	C7.06,3.84,7.03,3.93,6.98,4.02C7.15,4.02,7.35,3.86,7.5,3.62z M2.3,4.96c0-0.01,0.01-0.02,0.01-0.03C2.18,4.89,2.05,4.85,1.93,4.82
	c-0.02-0.01-0.07,0-0.08,0.01C1.84,4.85,1.83,4.89,1.85,4.92C1.94,5.08,2.03,5.25,2.13,5.4C2.22,5.53,2.36,5.6,2.53,5.6
	C2.16,5.49,2.05,5.15,1.88,4.87c0-0.01,0.01-0.01,0.01-0.02C2.03,4.89,2.16,4.93,2.3,4.96z M2.93,3.9c-0.28,0-0.54-0.04-0.8,0
	c0,0.02,0,0.03,0,0.05c0.25,0.03,0.49,0.06,0.75,0.09C2.88,4,2.9,3.96,2.93,3.9z M6.48,5.03c0,0.02,0,0.03,0.01,0.03
	C6.74,5.21,6.9,5.44,7.04,5.69C7.06,5.72,7.08,5.74,7.1,5.77c0.01-0.01,0.01-0.01,0.02-0.02C6.98,5.45,6.82,5.17,6.48,5.03z
	 M6.92,4.78c0.14,0,0.26,0,0.37,0c0-0.01,0.01-0.02,0.01-0.03C7.28,4.73,7.25,4.71,7.23,4.69C7.21,4.67,7.17,4.66,7.16,4.63
	C7.1,4.57,7.07,4.56,7.02,4.63C6.98,4.67,6.96,4.72,6.92,4.78z M10.8,2.47c0-0.01,0-0.02,0-0.03c-0.07,0-0.13,0-0.2,0
	c-0.05,0-0.07,0.01-0.09,0.06c-0.03,0.1-0.01,0.18,0.03,0.26c0.03,0.08,0.1,0.09,0.16,0.05c-0.05-0.08-0.09-0.16-0.13-0.24
	c-0.02-0.05,0.01-0.07,0.05-0.08C10.68,2.5,10.74,2.49,10.8,2.47z M12.1,2.12c0-0.02,0-0.03,0-0.05c-0.26,0.02-0.52,0.05-0.78,0.07
	c0,0.01,0,0.03,0,0.04C11.58,2.16,11.85,2.2,12.1,2.12z M6.68,4.14c0.01,0,0.02,0.01,0.04,0.01c0.06-0.14,0.12-0.28,0.18-0.42
	c0-0.01-0.02-0.04-0.03-0.04C6.84,3.7,6.8,3.71,6.79,3.72C6.76,3.83,6.73,3.93,6.7,4.04C6.69,4.07,6.68,4.11,6.68,4.14z M16.04,2.58
	C16.07,2.7,16.31,3,16.39,3.01C16.3,2.83,16.18,2.7,16.04,2.58z M14.92,2.03c-0.13-0.25-0.34-0.42-0.56-0.61
	C14.55,1.63,14.74,1.83,14.92,2.03z M1.94,4.1c0.03-0.19,0.06-0.37,0.09-0.58C1.9,3.71,1.93,3.91,1.94,4.1z M12.97,2.71
	c-0.09-0.05-0.18-0.05-0.26,0.02C12.8,2.81,12.92,2.81,12.97,2.71z M4.82,5.02c0-0.01,0-0.03,0-0.04C4.64,4.99,4.46,5,4.28,5
	c0,0,0,0.01,0,0.01C4.46,5.02,4.64,5.02,4.82,5.02z M1.99,4.4C1.99,4.5,2.21,4.66,2.32,4.65C2.22,4.57,2.11,4.49,1.99,4.4z
	 M9.92,4.46C10.04,4.4,10,4.25,10.09,4.17C9.94,4.21,9.98,4.37,9.92,4.46z M14.77,2.65c0.09,0.04,0.17,0.02,0.24-0.03
	c0.02-0.01,0.02-0.04,0.03-0.07C14.94,2.59,14.86,2.62,14.77,2.65z M12.26,5.16c0,0.01,0,0.02,0,0.02c0.19-0.03,0.38-0.05,0.56-0.08
	c0-0.01,0-0.01,0-0.02C12.63,5.11,12.44,5.13,12.26,5.16z M5.71,4.09C5.79,4.11,5.81,4.1,5.85,3.98C5.8,4.01,5.76,4.05,5.71,4.09z
	 M13.63,0.95c0-0.01,0-0.01,0.01-0.02c-0.1-0.03-0.19-0.06-0.29-0.08c0,0.01,0,0.01,0,0.02C13.44,0.89,13.53,0.92,13.63,0.95z"/>
<path d="M1.4,4.69C1.29,4.77,1.17,4.84,1.05,4.93C0.89,5.05,0.74,5.2,0.63,5.38C0.48,5.66,0.5,5.93,0.7,6.18
	c0.19,0.23,0.44,0.38,0.71,0.51c0.58,0.27,1.19,0.43,1.81,0.55c1.8,0.34,3.62,0.44,5.45,0.39c1.36-0.04,2.72-0.15,4.06-0.39
	C13.37,7.13,14,7,14.62,6.81c0.49-0.16,0.97-0.34,1.41-0.61c0.49-0.3,0.87-0.71,1.11-1.23c0.02-0.05,0.04-0.09,0.07-0.13
	c0.01-0.02,0.03-0.03,0.05-0.05c-0.03,0.14-0.06,0.27-0.08,0.41c-0.11,0.52-0.39,0.93-0.81,1.25c-0.44,0.34-0.93,0.59-1.46,0.77
	c-1.55,0.54-3.16,0.8-4.8,0.84C8.78,8.08,7.46,8.08,6.14,7.97C5.18,7.9,4.23,7.79,3.29,7.61c-0.76-0.15-1.5-0.34-2.21-0.66
	C0.82,6.82,0.55,6.68,0.35,6.46c-0.1-0.1-0.18-0.22-0.23-0.35C0.04,5.93,0.06,5.75,0.16,5.58C0.32,5.3,0.57,5.1,0.84,4.94
	C0.98,4.87,1.12,4.8,1.26,4.73C1.3,4.71,1.35,4.69,1.4,4.68C1.4,4.68,1.4,4.69,1.4,4.69z"/>
<path d="M4.97,7.21c3.74,0.27,7.39-0.21,10.98-1.25c0,0.01,0.01,0.02,0.01,0.03c-0.04,0.03-0.07,0.06-0.11,0.08
	c-0.37,0.22-0.78,0.38-1.19,0.51c-1.11,0.35-2.25,0.58-3.4,0.71c-1.07,0.12-2.14,0.17-3.22,0.18c-1.01,0.01-2.01-0.08-3-0.21
	C5.02,7.26,5,7.25,4.97,7.25C4.97,7.24,4.97,7.23,4.97,7.21z"/>
<path class="st0" d="M10.41,9.22c0-0.03,0.01-0.06,0.01-0.08c0.06-0.21,0.12-0.41,0.18-0.62c0.02-0.07,0.06-0.11,0.13-0.11
	c0.14-0.01,0.27-0.03,0.4-0.04c0.09-0.01,0.18-0.01,0.26,0.09c0.07-0.17,0.22-0.13,0.34-0.15c0.14-0.02,0.27-0.03,0.41-0.05
	c0.03,0,0.05,0,0.08,0c0,0.13-0.08,0.22-0.2,0.23c-0.1,0-0.14,0.05-0.16,0.15c-0.02,0.12-0.05,0.24-0.08,0.35
	c-0.04,0.15-0.1,0.18-0.27,0.15c0.05-0.19,0.1-0.38,0.15-0.58c-0.14-0.03-0.21,0.01-0.25,0.13c-0.06,0.15-0.15,0.27-0.33,0.28
	c-0.09,0.01-0.19,0.01-0.28,0.03c-0.04,0.01-0.08,0.04-0.1,0.07C10.63,9.22,10.61,9.23,10.41,9.22z M11.05,8.58
	c0,0-0.01,0.01-0.01,0.01c-0.06,0.01-0.12,0.01-0.18,0.02c-0.08,0.01-0.08,0.08-0.08,0.14c0.01,0.07,0.06,0.03,0.1,0.03
	c0.06,0,0.12-0.01,0.17-0.03c0.04-0.02,0.07-0.07,0.1-0.11C11.12,8.62,11.08,8.6,11.05,8.58z"/>
<path class="st0" d="M5.72,8.38C5.67,8.44,5.63,8.49,5.58,8.54C5.43,8.7,5.27,8.86,5.12,9.02C5.07,9.07,4.87,9.08,4.83,9.03
	C4.82,9.02,4.82,8.98,4.82,8.95c0.01-0.06,0.03-0.13,0.04-0.19C4.86,8.76,4.85,8.75,4.84,8.75C4.79,8.8,4.73,8.85,4.68,8.91
	C4.6,9.01,4.51,9.02,4.39,8.99C4.34,8.97,4.32,8.95,4.34,8.9C4.4,8.69,4.46,8.48,4.52,8.27c0.02-0.07,0.11-0.09,0.2-0.05
	C4.8,8.25,4.76,8.3,4.75,8.34c-0.03,0.1-0.06,0.19-0.09,0.28c0.01,0.01,0.02,0.01,0.03,0.02C4.74,8.58,4.8,8.52,4.86,8.46
	c0.02-0.02,0.04-0.05,0.06-0.08c0.07-0.1,0.15-0.13,0.26-0.08c0.02,0.01,0.04,0.06,0.03,0.08C5.19,8.46,5.16,8.54,5.14,8.61
	C5.13,8.64,5.13,8.66,5.13,8.68C5.14,8.69,5.15,8.7,5.16,8.71C5.19,8.67,5.21,8.63,5.24,8.6c0.05-0.05,0.09-0.11,0.14-0.16
	C5.48,8.32,5.55,8.3,5.72,8.38z"/>
<path class="st0" d="M14.92,8.52c0.02-0.18,0.04-0.35,0.06-0.52C14.98,7.92,15,7.84,15,7.77c0.01-0.07,0.03-0.11,0.1-0.13
	c0.14-0.04,0.28-0.09,0.42-0.13c0.19-0.05,0.28,0.02,0.27,0.22c-0.01,0.11-0.02,0.22-0.04,0.32c-0.03,0.15-0.12,0.26-0.26,0.31
	c-0.16,0.06-0.33,0.11-0.5,0.16C14.97,8.52,14.95,8.52,14.92,8.52z M15.18,8.23c0.1-0.04,0.18-0.06,0.26-0.09
	c0.03-0.01,0.06-0.04,0.06-0.07c0.02-0.08,0.04-0.17,0.05-0.26c0.01-0.05-0.03-0.08-0.09-0.06c-0.06,0.02-0.12,0.04-0.18,0.06
	c-0.02,0.01-0.05,0.04-0.06,0.06C15.21,7.98,15.2,8.09,15.18,8.23z"/>
<path class="st0" d="M3.42,8.8C3.28,8.77,3.09,8.73,2.9,8.68C2.85,8.67,2.85,8.64,2.88,8.6c0.13-0.19,0.27-0.39,0.4-0.58
	C3.31,7.97,3.34,7.95,3.4,7.97C3.54,8,3.69,8.03,3.84,8.06c0.18,0.04,0.24,0.15,0.14,0.31C3.91,8.49,3.82,8.59,3.74,8.69
	C3.67,8.77,3.57,8.8,3.42,8.8z M3.21,8.52c0.18,0.12,0.3,0.1,0.42-0.06C3.64,8.44,3.66,8.42,3.67,8.4c0.07-0.11,0.06-0.13-0.06-0.16
	C3.57,8.23,3.52,8.22,3.48,8.22c-0.03,0-0.07,0.01-0.08,0.03C3.33,8.33,3.28,8.42,3.21,8.52z"/>
<path class="st0" d="M3.2,7.94C3.12,8.07,3.04,8.11,2.91,8.07C2.81,8.05,2.72,8.02,2.62,8C2.58,8,2.54,8,2.5,8
	c0,0.01-0.01,0.02-0.01,0.03c0.03,0.01,0.05,0.04,0.08,0.04C2.66,8.1,2.74,8.12,2.82,8.15c0.11,0.04,0.14,0.12,0.1,0.22
	C2.85,8.55,2.7,8.62,2.51,8.58C2.36,8.54,2.21,8.5,2.06,8.46C2.03,8.45,2,8.43,1.96,8.42c0.07-0.13,0.15-0.17,0.27-0.13
	c0.11,0.03,0.21,0.06,0.32,0.09c0.03,0.01,0.06-0.02,0.09-0.03C2.63,8.33,2.61,8.29,2.58,8.28C2.5,8.26,2.42,8.24,2.34,8.21
	C2.22,8.17,2.19,8.07,2.25,7.96c0.08-0.14,0.2-0.22,0.36-0.18c0.19,0.04,0.37,0.09,0.56,0.14C3.17,7.92,3.18,7.93,3.2,7.94z"/>
<path class="st0" d="M7.29,9.26C7.31,9.2,7.32,9.15,7.34,9.1C7.42,8.93,7.5,8.75,7.58,8.57c0.02-0.03,0.07-0.08,0.1-0.08
	c0.22,0,0.44,0,0.65,0.01c0.01,0,0.02,0.01,0.03,0.01c-0.01,0.1-0.1,0.2-0.2,0.2c-0.1,0-0.2,0-0.3,0c-0.03,0-0.05,0-0.08,0
	C7.77,8.72,7.76,8.75,7.74,8.76C7.76,8.77,7.78,8.79,7.8,8.79c0.09,0,0.19,0,0.28,0C8.12,8.8,8.16,8.8,8.2,8.8
	C8.18,8.94,8.13,8.98,8.01,8.98c-0.1,0-0.19,0-0.29,0c-0.03,0-0.05,0.03-0.08,0.05c0.03,0.01,0.05,0.04,0.08,0.04
	c0.13,0,0.25,0,0.38,0c0,0.12-0.06,0.2-0.14,0.2C7.74,9.28,7.53,9.27,7.29,9.26z"/>
<path class="st0" d="M9.44,8.76c0.03,0.01,0.07,0.02,0.1,0.02c0.09,0,0.18-0.01,0.27-0.01c0.11,0,0.15,0.06,0.14,0.17
	c-0.02,0.19-0.12,0.3-0.31,0.32C9.47,9.28,9.3,9.28,9.13,9.28c-0.02,0-0.04-0.01-0.07-0.01c0.03-0.15,0.08-0.19,0.22-0.19
	c0.1,0,0.21,0,0.31-0.01c0.03,0,0.06-0.04,0.08-0.06C9.64,9,9.61,8.97,9.58,8.97c-0.08-0.01-0.17,0-0.25,0
	C9.22,8.96,9.17,8.89,9.19,8.78c0.04-0.19,0.13-0.29,0.32-0.3c0.16,0,0.32-0.02,0.48-0.03c0.04,0,0.07,0,0.11,0
	c-0.02,0.12-0.12,0.21-0.23,0.22c-0.1,0.01-0.2,0.01-0.3,0.02c-0.04,0-0.08,0.02-0.13,0.03C9.44,8.73,9.44,8.74,9.44,8.76z"/>
<path class="st0" d="M6.86,8.76c0.15,0,0.3,0,0.45,0C7.3,8.89,7.23,8.95,7.14,8.95c-0.11,0-0.21-0.01-0.32-0.01
	c-0.03,0-0.06,0.03-0.09,0.05C6.76,9,6.78,9.03,6.81,9.04c0.13,0.01,0.25,0,0.38,0c0,0.11-0.07,0.21-0.14,0.21
	C6.84,9.24,6.62,9.23,6.4,9.22c0.01-0.03,0-0.06,0.01-0.07C6.51,8.93,6.6,8.73,6.7,8.52c0.01-0.03,0.06-0.06,0.08-0.06
	c0.23,0.01,0.45,0.02,0.68,0.03c0.01,0,0.01,0.01,0.02,0.01c-0.01,0.1-0.1,0.19-0.19,0.19c-0.11,0-0.22-0.01-0.34-0.01
	c-0.03,0-0.07,0.02-0.1,0.03C6.86,8.72,6.86,8.74,6.86,8.76z"/>
<path class="st0" d="M6.11,8.9C6.02,8.9,5.92,8.89,5.82,8.88c-0.02,0-0.05,0.02-0.06,0.04C5.74,8.95,5.73,8.99,5.71,9.02
	c-0.07,0.14-0.13,0.16-0.3,0.09c0.02-0.04,0.03-0.08,0.05-0.12c0.09-0.18,0.19-0.37,0.29-0.55c0.03-0.06,0.18-0.1,0.24-0.05
	C6,8.4,6,8.44,6,8.46C5.96,8.53,5.93,8.6,5.88,8.7c0.11,0.01,0.21,0.02,0.3,0.02c0.02,0,0.04-0.03,0.05-0.04
	c0.02-0.05,0.04-0.1,0.06-0.15c0.04-0.11,0.13-0.15,0.24-0.1c0.02,0.01,0.03,0.06,0.03,0.08C6.47,8.72,6.38,8.93,6.28,9.14
	C6.26,9.2,6.11,9.22,6.07,9.18C6.05,9.16,6.06,9.13,6.06,9.11C6.08,9.05,6.1,8.99,6.12,8.94C6.12,8.93,6.12,8.93,6.11,8.9z"/>
<path d="M2.51,5.98c0.54,0.07,1.08,0.15,1.61,0.24c0,0.01,0,0.02,0,0.03C4.1,6.27,4.07,6.3,4.04,6.31c-0.48,0.19-0.94,0.2-1.38-0.1
	C2.58,6.16,2.53,6.08,2.51,5.98z"/>
<path class="st0" d="M12.65,8.47c0.14-0.17,0.2-0.41,0.49-0.34C13.09,8.2,13.05,8.27,13,8.34c-0.07,0.1-0.15,0.19-0.21,0.3
	c-0.05,0.08-0.08,0.17-0.11,0.26c-0.03,0.08-0.15,0.15-0.23,0.12c-0.01,0-0.02-0.02-0.03-0.03c0-0.01,0-0.02,0-0.03
	c0.11-0.24-0.03-0.43-0.12-0.62c-0.04-0.1-0.04-0.1,0.06-0.12c0.03-0.01,0.06-0.01,0.1-0.02c0.06-0.01,0.09,0.01,0.1,0.07
	C12.59,8.34,12.61,8.39,12.65,8.47z"/>
<path class="st0" d="M14.94,7.7c0.02,0.14-0.04,0.23-0.17,0.25c-0.09,0.02-0.13,0.07-0.13,0.16c-0.01,0.12-0.03,0.24-0.04,0.36
	c-0.02,0.16-0.08,0.21-0.26,0.19c0.02-0.2,0.05-0.39,0.08-0.61c-0.09,0.04-0.17,0.07-0.25,0.1c-0.02-0.15,0.04-0.26,0.17-0.3
	c0.18-0.05,0.35-0.09,0.53-0.14C14.88,7.7,14.9,7.7,14.94,7.7z"/>
<path class="st0" d="M14.24,8.49c-0.01,0.16-0.06,0.22-0.18,0.25c-0.16,0.04-0.31,0.07-0.47,0.1c-0.07,0.02-0.09-0.01-0.08-0.08
	c0.04-0.22,0.08-0.44,0.12-0.66c0.01-0.08,0.14-0.15,0.21-0.12c0.02,0.01,0.03,0.06,0.03,0.09c-0.02,0.14-0.05,0.28-0.07,0.42
	c-0.02,0.09-0.01,0.1,0.08,0.08C13.99,8.54,14.11,8.51,14.24,8.49z"/>
<path class="st0" d="M9,9.09c-0.02,0.14-0.09,0.2-0.2,0.2c-0.16,0-0.32,0-0.48,0c-0.03,0-0.06-0.01-0.1-0.02
	c0.07-0.18,0.13-0.34,0.19-0.5c0.02-0.05,0.04-0.09,0.05-0.14c0.05-0.13,0.06-0.14,0.2-0.13c0.09,0,0.1,0.02,0.07,0.1
	C8.68,8.71,8.63,8.83,8.58,8.94c-0.06,0.14-0.05,0.15,0.1,0.15C8.78,9.09,8.89,9.09,9,9.09z"/>
<path class="st1" d="M8.76,2.49C8.8,2.47,8.85,2.45,8.89,2.44c0.28-0.05,0.56-0.1,0.85-0.15c0.04-0.01,0.07-0.02,0.1-0.05
	C8.67,2.2,7.5,2.2,6.3,2.27C6.33,2.23,6.35,2.21,6.36,2.2c0.63-0.46,1.27-0.89,2.01-1.15c0.26-0.09,0.53-0.14,0.8-0.15
	c0.62-0.01,1.24-0.02,1.86-0.03c0.03,0,0.07,0.02,0.1,0.02c-0.01,0.03-0.02,0.07-0.04,0.1c-0.27,0.36-0.54,0.72-0.81,1.08
	c-0.09,0.12-0.2,0.19-0.34,0.21C9.57,2.35,9.21,2.41,8.85,2.47C8.82,2.47,8.79,2.48,8.76,2.49C8.76,2.49,8.76,2.49,8.76,2.49z"/>
<path class="st1" d="M9.45,5.42c-0.01,0.33-0.07,0.64-0.28,0.9c-0.3,0.37-0.76,0.36-1.02-0.03C7.86,5.87,7.86,5.41,7.98,4.95
	c0.07-0.24,0.19-0.45,0.4-0.6C8.6,4.2,8.81,4.21,9.02,4.37c0.29,0.23,0.4,0.54,0.43,0.89C9.45,5.31,9.45,5.36,9.45,5.42z M8.26,5.49
	C8.2,5.49,8.14,5.5,8.08,5.5C8.03,5.51,8,5.54,8.01,5.59C8.04,5.72,8.06,5.84,8.1,5.96c0.02,0.07,0.07,0.08,0.11,0.02
	c0.07-0.1,0.14-0.2,0.19-0.31C8.47,5.51,8.44,5.48,8.26,5.49z M8.44,4.54c-0.02,0-0.03,0-0.05-0.01C8.33,4.61,8.27,4.69,8.21,4.78
	c-0.01,0.01-0.01,0.05,0,0.06C8.28,4.92,8.36,5,8.43,5.07c0.01,0.01,0.05,0.02,0.06,0.01c0.02-0.01,0.03-0.04,0.03-0.06
	C8.52,4.93,8.51,4.84,8.5,4.74C8.48,4.67,8.46,4.61,8.44,4.54z M8.73,5.84c-0.01,0-0.02,0-0.03,0C8.64,6.02,8.58,6.19,8.52,6.37
	c0.07,0.02,0.28,0,0.3-0.05c0.02-0.06,0-0.13-0.01-0.19C8.81,6.09,8.8,6.04,8.79,6C8.77,5.95,8.75,5.89,8.73,5.84z M8.87,5.09
	C8.88,5.1,8.89,5.1,8.9,5.1C9,5.03,9.07,4.94,9.12,4.83c0.01-0.01,0-0.03,0-0.04C9.07,4.69,9.01,4.6,8.9,4.55
	C8.89,4.74,8.88,4.91,8.87,5.09z M9.12,5.82c0.01,0,0.03-0.01,0.04-0.01c0.02-0.05,0.04-0.1,0.05-0.16
	c0.05-0.19,0.01-0.23-0.18-0.18c-0.06,0.01-0.09,0.05-0.06,0.1C9.02,5.66,9.07,5.74,9.12,5.82z M8.48,5.31
	c0-0.01,0.01-0.02,0.01-0.03C8.46,5.26,8.44,5.23,8.41,5.21c-0.08-0.05-0.16-0.1-0.25-0.14c-0.03-0.01-0.07-0.01-0.1-0.01
	c0.01,0.06-0.01,0.16,0.02,0.17C8.2,5.29,8.34,5.31,8.48,5.31z M8.88,5.7C8.87,5.7,8.86,5.71,8.84,5.71
	c0.01,0.06,0.02,0.13,0.04,0.18c0.03,0.07,0.07,0.14,0.11,0.2C9,6.11,9.04,6.12,9.06,6.13C9.08,6.1,9.11,6.05,9.1,6.04
	C9.03,5.92,8.96,5.81,8.88,5.7z M9.24,5.09c0-0.01-0.01-0.04-0.02-0.05c-0.02,0-0.05,0.01-0.07,0.02c-0.07,0.05-0.14,0.11-0.2,0.17
	C8.93,5.25,8.93,5.27,8.92,5.29C8.94,5.3,8.96,5.31,8.99,5.31C9.03,5.3,9.07,5.27,9.12,5.27C9.21,5.25,9.24,5.19,9.24,5.09z
	 M8.7,4.93c0.01,0,0.02,0,0.03,0c0.05-0.15-0.01-0.3-0.03-0.45c0-0.01-0.04-0.02-0.06-0.02c-0.01,0-0.03,0.03-0.03,0.05
	c0,0.03,0.01,0.05,0.02,0.08c0.01,0.05,0.03,0.11,0.04,0.16C8.69,4.81,8.69,4.87,8.7,4.93z M8.29,6.21C8.3,6.22,8.31,6.23,8.31,6.23
	c0.1-0.02,0.23-0.27,0.19-0.39C8.43,5.97,8.36,6.09,8.29,6.21z M8.57,5.58c0.03,0.04,0.05,0.07,0.07,0.1
	C8.66,5.66,8.7,5.63,8.69,5.61C8.68,5.58,8.65,5.55,8.62,5.53C8.62,5.53,8.59,5.56,8.57,5.58z M8.59,5.4
	c0.02-0.05,0.04-0.1,0.06-0.15c0-0.01-0.01-0.03-0.01-0.04C8.62,5.22,8.61,5.22,8.6,5.24C8.58,5.26,8.58,5.29,8.56,5.3
	C8.49,5.36,8.54,5.38,8.59,5.4z M8.86,5.42C8.83,5.39,8.81,5.36,8.8,5.37C8.77,5.38,8.75,5.41,8.73,5.43c0,0.01,0.03,0.03,0.04,0.05
	C8.8,5.47,8.82,5.44,8.86,5.42z M8.78,5.19C8.76,5.22,8.73,5.24,8.74,5.26c0,0.02,0.03,0.04,0.04,0.05C8.8,5.3,8.83,5.28,8.83,5.27
	C8.83,5.25,8.8,5.23,8.78,5.19z"/>
<path class="st1" d="M3.11,3.27c0.25-0.06,0.5-0.11,0.75-0.17c0-0.01,0-0.02,0-0.03C3.83,3.07,3.8,3.06,3.76,3.05
	c0.02-0.01,0.03-0.02,0.05-0.02c0.36-0.09,0.73-0.15,1.11-0.15c0.98,0,1.95-0.12,2.91-0.29c0.02,0,0.05-0.01,0.07,0.01
	C7.87,2.6,7.84,2.62,7.81,2.63C7.23,2.81,6.65,2.98,6.07,3.17C5.85,3.24,5.65,3.35,5.44,3.44C5.39,3.46,5.33,3.48,5.28,3.47
	C4.65,3.35,4.01,3.33,3.37,3.31c-0.08,0-0.17,0-0.25,0C3.12,3.3,3.12,3.29,3.11,3.27z"/>
<path class="st1" d="M11.11,1.82c0.01-0.04,0.01-0.07,0.03-0.09c0.13-0.18,0.25-0.36,0.4-0.53c0.23-0.25,0.54-0.32,0.86-0.32
	c0.03,0,0.07,0.04,0.08,0.06c0.06,0.15,0.11,0.29,0.15,0.44c0.05,0.22,0.09,0.44,0.14,0.66c0.02,0.07-0.01,0.1-0.08,0.11
	c-0.14,0.01-0.27,0.02-0.41,0.03c-0.05,0.01-0.08-0.01-0.09-0.07c-0.03-0.16-0.15-0.25-0.29-0.29c-0.2-0.06-0.41-0.08-0.62-0.06
	C11.23,1.78,11.18,1.8,11.11,1.82z"/>
<path class="st1" d="M10.02,2.4c0.01,0.08-0.05,0.13-0.11,0.15c-0.1,0.04-0.2,0.07-0.3,0.09C9.04,2.75,8.46,2.82,7.91,3.01
	C7.7,3.08,7.49,3.18,7.28,3.26C7.25,3.27,7.23,3.28,7.2,3.29C6.65,3.34,6.13,3.5,5.6,3.65C5.56,3.66,5.52,3.68,5.48,3.67
	c-0.03,0-0.08-0.01-0.09-0.04c-0.02-0.05,0-0.09,0.05-0.11c0.14-0.06,0.28-0.13,0.42-0.18C6.47,3.16,7.08,2.95,7.7,2.8
	c0.67-0.16,1.36-0.25,2.04-0.37C9.82,2.42,9.91,2.4,9.99,2.39C10,2.39,10.01,2.4,10.02,2.4z"/>
<path class="st1" d="M12.8,0.88c0.04,0,0.06-0.01,0.08-0.01c0.28,0.02,0.55,0.08,0.81,0.2c0.09,0.04,0.15,0.1,0.19,0.2
	c0.08,0.23,0.18,0.45,0.26,0.68c0.04,0.12,0.03,0.13-0.1,0.13c-0.24,0.01-0.48,0.01-0.72,0.02c-0.06,0-0.1-0.01-0.11-0.07
	c-0.1-0.38-0.22-0.75-0.41-1.09C12.81,0.92,12.81,0.9,12.8,0.88z"/>
<path class="st1" d="M15.88,4.8c-0.03,0.14-0.06,0.32-0.11,0.5c-0.02,0.07-0.06,0.14-0.1,0.19c-0.16,0.21-0.36,0.23-0.53,0.02
	c-0.07-0.09-0.14-0.2-0.17-0.3c-0.09-0.4-0.07-0.8,0.14-1.16c0.01-0.03,0.03-0.05,0.05-0.07c0.14-0.17,0.3-0.18,0.45-0.03
	c0.12,0.11,0.18,0.26,0.21,0.42C15.85,4.49,15.86,4.62,15.88,4.8z M15.02,5.2c0.03-0.05,0.06-0.07,0.07-0.1
	c0.04-0.07,0.08-0.14,0.11-0.22c0.01-0.02,0-0.07-0.02-0.09c-0.05-0.05-0.19,0.02-0.19,0.08C15,4.99,15.01,5.09,15.02,5.2z
	 M15.39,5.1c-0.04,0.12-0.08,0.24-0.12,0.36c0.09,0.02,0.2-0.01,0.22-0.06C15.51,5.34,15.44,5.14,15.39,5.1z M15.3,4.36
	c-0.02-0.08-0.03-0.15-0.04-0.22c0-0.02-0.03-0.04-0.04-0.05c-0.01,0-0.03,0.02-0.04,0.03c-0.05,0.08-0.07,0.17-0.01,0.25
	c0.03,0.04,0.07,0.06,0.1,0.1C15.28,4.44,15.29,4.4,15.3,4.36z M15.5,4.31C15.5,4.31,15.49,4.31,15.5,4.31c0,0.03-0.01,0.07,0,0.1
	c0,0.02,0.02,0.04,0.03,0.07c0.02-0.01,0.05-0.02,0.06-0.04c0.07-0.08,0.05-0.17,0.03-0.26c-0.01-0.02-0.04-0.04-0.06-0.04
	c-0.02,0-0.04,0.03-0.05,0.05C15.5,4.23,15.5,4.27,15.5,4.31z M15.72,4.75c-0.01-0.01-0.03-0.02-0.04-0.02
	c-0.05,0.03-0.13,0.05-0.14,0.09c-0.02,0.08,0.04,0.14,0.13,0.21C15.69,4.92,15.71,4.84,15.72,4.75z M15.33,4.65
	c-0.08-0.05-0.15-0.1-0.22-0.14C15.09,4.5,15.05,4.5,15.03,4.5c0,0.03,0,0.07,0.02,0.1C15.09,4.67,15.22,4.69,15.33,4.65z
	 M15.51,4.95c-0.04,0.08,0.02,0.27,0.09,0.29c0.02,0,0.04,0,0.05-0.01c0.01-0.01,0.01-0.03,0-0.05C15.61,5.1,15.56,5.03,15.51,4.95z
	 M15.51,4.65c0.1,0.03,0.16-0.01,0.19-0.06c0.02-0.03,0.02-0.08,0.02-0.12c-0.01,0-0.02-0.01-0.03-0.01
	C15.64,4.51,15.58,4.57,15.51,4.65z M15.38,4.32c0.01,0,0.01,0,0.02,0c0.01-0.09,0.02-0.17,0.03-0.26c0-0.02-0.03-0.05-0.05-0.05
	C15.36,4,15.33,4.02,15.3,4.02c0.07,0.05,0.1,0.1,0.07,0.17C15.36,4.23,15.38,4.28,15.38,4.32z M15.27,5.14c0,0-0.01,0-0.01,0
	c-0.04,0.07-0.08,0.15-0.12,0.22c-0.01,0.01,0.01,0.03,0.01,0.04c0.01-0.01,0.04-0.01,0.04-0.02C15.22,5.3,15.24,5.22,15.27,5.14z
	 M15.29,4.76c0.03,0.06,0.06,0.1,0.08,0.15c0.02-0.03,0.03-0.07,0.05-0.1C15.37,4.79,15.34,4.78,15.29,4.76z M15.43,4.66
	c0-0.05,0-0.1,0-0.14C15.36,4.62,15.36,4.62,15.43,4.66z"/>
<path class="st1" d="M15.74,2.5c-0.13,0-0.23,0-0.33,0c-0.13,0-0.12,0.01-0.14,0.13c-0.02,0.14-0.06,0.27-0.08,0.41
	c-0.03,0.25-0.23,0.41-0.31,0.63c-0.01,0-0.02-0.01-0.03-0.01c0.03-0.07,0.06-0.14,0.1-0.2c0.16-0.26,0.27-0.53,0.28-0.84
	c0-0.1-0.01-0.11-0.11-0.11c-0.14,0-0.27,0.01-0.41,0.02c-0.03,0-0.07,0-0.1-0.02c0.11-0.06,0.24-0.04,0.36-0.03
	c0-0.01,0.01-0.02,0.01-0.03c-0.04-0.02-0.07-0.05-0.12-0.06c-0.13-0.04-0.27,0.01-0.35,0.12c-0.02,0.02-0.05,0.04-0.08,0.04
	c-0.38,0.02-0.77,0.05-1.15,0.06c-0.03,0-0.06-0.03-0.08-0.06c-0.04-0.09-0.06-0.18-0.1-0.27c-0.03-0.06-0.01-0.09,0.06-0.09
	c0.1-0.01,0.2-0.01,0.3-0.01c0.49,0,0.98-0.01,1.47-0.01c0.04,0,0.09,0,0.12,0.02c0.21,0.09,0.41,0.18,0.62,0.28
	C15.7,2.46,15.71,2.47,15.74,2.5z"/>
<path class="st1" d="M7.35,3.28c0.13-0.05,0.24-0.1,0.35-0.14c0.6-0.21,1.23-0.31,1.86-0.41c0.11-0.02,0.22-0.04,0.33-0.07
	c0.12-0.03,0.2-0.11,0.24-0.23c0.06-0.17,0.16-0.23,0.33-0.22c0.06,0,0.09,0.02,0.06,0.09c-0.09,0.16-0.08,0.32-0.03,0.48
	c0.02,0.07,0,0.09-0.06,0.09C9.84,2.94,9.27,3,8.7,3.08c-0.28,0.04-0.56,0.12-0.83,0.2C7.71,3.33,7.56,3.33,7.4,3.31
	C7.39,3.31,7.38,3.3,7.35,3.28z"/>
<path class="st1" d="M2.27,3.55c0.09-0.05,0.17-0.11,0.27-0.13C2.66,3.39,2.78,3.38,2.9,3.38c0.74,0.04,1.48,0.08,2.22,0.13
	c0.03,0,0.06,0.01,0.1,0.01C5.27,3.53,5.3,3.56,5.3,3.62c0,0.06,0,0.11-0.08,0.13c-0.13,0.03-0.25,0.04-0.38,0
	C4.66,3.69,4.47,3.68,4.28,3.67C3.66,3.64,3.04,3.62,2.42,3.6c-0.04,0-0.09-0.01-0.13-0.01C2.28,3.58,2.28,3.56,2.27,3.55z"/>
<path class="st1" d="M7.56,4.21c0-0.16,0.18-0.25,0.14-0.42C7.67,3.78,7.63,3.78,7.59,3.77c0.02-0.03,0.04-0.06,0.06-0.08
	c0.03-0.04,0.06-0.09,0.1-0.13c0.03-0.03,0.06-0.07,0.1-0.09c0.34-0.18,0.71-0.28,1.1-0.27c0.14,0,0.28,0.06,0.41,0.11
	c0.08,0.03,0.08,0.09,0,0.14c-0.09,0.06-0.2,0.1-0.31,0.07C8.6,3.42,8.25,3.59,7.95,3.9c-0.07,0.07-0.13,0.15-0.2,0.22
	C7.71,4.17,7.66,4.23,7.56,4.21z"/>
<path class="st1" d="M11.05,2.43c0.05,0,0.1-0.01,0.15-0.01c0.25-0.01,0.5-0.02,0.75-0.03c0.04,0,0.09-0.01,0.12-0.03
	c0.08-0.07,0.18-0.08,0.28-0.09c0.18-0.02,0.36-0.04,0.55-0.06c0.08-0.01,0.13,0.01,0.15,0.09c0.03,0.09,0.07,0.17,0.1,0.26
	c0.01,0.02-0.01,0.05-0.02,0.07c-0.03-0.01-0.05-0.02-0.08-0.03c-0.03-0.01-0.05-0.03-0.07-0.03c-0.11,0.01-0.23,0.02-0.34,0.03
	c-0.02,0-0.04,0-0.07,0c0-0.01,0-0.02,0-0.03c0.07-0.01,0.14-0.03,0.21-0.04c0.07-0.01,0.15,0,0.22,0C12.99,2.51,13,2.5,13.01,2.49
	c-0.02-0.01-0.04-0.01-0.06-0.02c-0.14-0.06-0.28-0.05-0.42,0.02c-0.03,0.01-0.05,0.06-0.06,0.1c-0.01,0.05-0.04,0.07-0.08,0.07
	c-0.29,0.03-0.58,0.05-0.87,0.08c-0.05,0-0.11-0.02-0.16-0.04c-0.07-0.03-0.13-0.07-0.2-0.1C11.08,2.57,11.05,2.52,11.05,2.43z"/>
<path class="st1" d="M13.5,3.73c-0.06,0.01-0.11,0.03-0.17,0.04c-0.07,0.01-0.1,0.04-0.1,0.11c0,0.19,0,0.38,0,0.57
	c0,0.07,0.03,0.09,0.1,0.08c0.41-0.09,0.81-0.18,1.22-0.26c0.07-0.01,0.1-0.05,0.12-0.12c0.04-0.14,0.09-0.27,0.14-0.4
	c0.01,0,0.01,0,0.02,0.01c-0.04,0.12-0.08,0.24-0.12,0.36c-0.01,0.04-0.06,0.09,0.01,0.11c0.05,0.02,0.12,0.01,0.15-0.07
	c0.03-0.07,0.06-0.13,0.1-0.2c-0.04,0.12-0.08,0.23-0.11,0.35c-0.09,0.37-0.12,0.75,0.04,1.11c0.03,0.07,0.07,0.14,0.12,0.2
	c0.05,0.06,0.11,0.1,0.16,0.17c-0.03-0.02-0.06-0.03-0.09-0.05c-0.21-0.16-0.28-0.39-0.31-0.64c-0.03-0.24-0.02-0.48,0.04-0.72
	c0.01-0.03,0-0.07-0.01-0.1c-0.04,0.01-0.08,0-0.12,0.02c-0.03,0.02-0.06,0.05-0.1,0.02c-0.01-0.01-0.04,0-0.06,0.01
	c-0.39,0.09-0.78,0.17-1.18,0.26c-0.07,0.02-0.11,0.05-0.11,0.12c0,0.07,0,0.14-0.01,0.2c-0.01,0.07,0.02,0.1,0.09,0.09
	c0.32-0.05,0.64-0.09,0.96-0.14c0.06-0.01,0.13-0.01,0.19-0.03c0.04-0.01,0.07-0.04,0.1-0.06c0.01,0.06-0.02,0.09-0.11,0.1
	c-0.39,0.05-0.78,0.1-1.18,0.16c-0.04,0.01-0.08,0.01-0.1,0.01c0.01-0.12,0.02-0.25,0.02-0.37c0-0.01-0.06-0.04-0.09-0.03
	c-0.24,0.04-0.49,0.09-0.73,0.13c-0.53,0.09-1.07,0.17-1.6,0.26c-0.14,0.02-0.14,0.02-0.14,0.17c0,0.03,0,0.05-0.01,0.08
	c0-0.04,0-0.08,0-0.11c0-0.08-0.03-0.11-0.11-0.09c-0.12,0.03-0.24,0.04-0.37,0.06c-0.03,0-0.05,0-0.08,0
	c0-0.01-0.01-0.02-0.01-0.03c0.03-0.01,0.06-0.04,0.09-0.04c0.12-0.03,0.25-0.05,0.37-0.07c0.06-0.01,0.08-0.04,0.08-0.1
	c-0.01-0.26-0.01-0.51-0.01-0.77c0-0.18-0.01-0.36-0.02-0.54c0-0.03,0-0.06,0-0.09c0.01,0,0.02,0,0.02,0c0,0.21,0.01,0.42,0.01,0.63
	c0.01,0.25,0.01,0.5,0.02,0.74c0,0.07,0.04,0.09,0.11,0.08c0.78-0.13,1.57-0.26,2.35-0.4c0.12-0.02,0.12-0.02,0.12-0.15
	c0-0.17-0.01-0.35-0.01-0.52c0-0.08-0.02-0.11-0.1-0.1c-0.22,0.03-0.45,0.06-0.68,0.09c-0.04,0.01-0.08,0.01-0.12,0
	c0.26-0.04,0.53-0.08,0.79-0.12c0.11-0.02,0.12-0.03,0.12-0.14c-0.01-0.26-0.02-0.52-0.02-0.78c0-0.03,0.01-0.06,0.03-0.09
	c0,0.02,0.01,0.03,0.01,0.05c0,0.28,0.01,0.56,0.01,0.84c0,0.07,0.03,0.1,0.1,0.09C13.39,3.75,13.45,3.74,13.5,3.73
	C13.5,3.73,13.5,3.73,13.5,3.73z"/>
<path class="st1" d="M4,4.85c0.32-0.07,0.64-0.13,0.81-0.47c-0.02,0-0.04-0.01-0.06-0.01C4.35,4.39,3.96,4.41,3.57,4.44
	c-0.08,0.01-0.15,0.01-0.2,0.09C3.36,4.55,3.33,4.56,3.29,4.59c0.05-0.1,0.1-0.18,0.13-0.26c0.07-0.17,0-0.42-0.15-0.5
	c-0.07-0.04-0.1-0.03-0.11,0.05C3.16,3.95,3.15,4.04,3.16,4.11c0.01,0.05,0.05,0.1,0.08,0.14C3.26,4.28,3.3,4.3,3.33,4.33
	C3.32,4.34,3.31,4.35,3.31,4.36C3.27,4.34,3.24,4.33,3.2,4.31C3.1,4.24,2.96,4.26,2.9,4.37c-0.01,0.02-0.01,0.07,0,0.09
	c0.06,0.07,0.13,0.13,0.19,0.21C3.03,4.62,2.96,4.59,2.92,4.54C2.85,4.46,2.79,4.42,2.69,4.41C2.55,4.39,2.41,4.36,2.28,4.33
	C2.24,4.33,2.2,4.31,2.15,4.3c0-0.01,0-0.02,0-0.03c0.03-0.01,0.05-0.03,0.08-0.03C2.42,4.25,2.61,4.27,2.8,4.29
	c0.04,0,0.08,0.05,0.13,0C3,4.23,3.1,4.19,3.1,4.08c0.01-0.1,0.03-0.21,0.05-0.32c0.1-0.04,0.2,0,0.27,0.07
	C3.5,3.9,3.58,3.91,3.68,3.92c0.38,0.02,0.75,0.04,1.13,0.06c0.04,0,0.07,0.02,0.11,0.03c0,0.01,0,0.03,0,0.04
	C4.88,4.05,4.84,4.06,4.8,4.06c-0.4,0-0.79-0.01-1.19-0.01c-0.03,0-0.08,0.01-0.09,0.03C3.5,4.12,3.49,4.18,3.55,4.2
	c0.02,0.01,0.04,0.02,0.04,0.03C3.62,4.34,3.7,4.32,3.78,4.32C4.1,4.31,4.43,4.3,4.76,4.3c0.11,0,0.12,0.01,0.07,0.11
	c-0.06,0.14-0.17,0.23-0.3,0.31C4.37,4.8,4.19,4.85,4,4.85z"/>
<path class="st1" d="M3.93,5.1C3.92,5.32,3.97,5.32,3.71,5.3C3.32,5.27,2.92,5.24,2.53,5.21C2.41,5.2,2.41,5.19,2.41,5.07
	c0-0.07,0-0.15,0-0.22c0-0.06,0.02-0.08,0.08-0.07c0.45,0.03,0.91,0.06,1.36,0.09c0.03,0,0.07,0.04,0.07,0.06
	C3.93,4.99,3.93,5.04,3.93,5.1z M3.68,5.16c0-0.01,0-0.02,0.01-0.04c0.04-0.1,0.04-0.1-0.07-0.11c-0.06,0-0.12,0-0.17-0.01
	C3.28,4.99,3.11,4.97,2.94,4.96C2.92,4.95,2.88,5,2.87,5.04C2.86,5.06,2.89,5.11,2.92,5.11c0.07,0.01,0.14,0.01,0.21,0.01
	C3.31,5.14,3.49,5.15,3.68,5.16z M2.81,5.03C2.79,5.01,2.78,4.98,2.76,4.96c-0.04-0.08-0.09,0.01-0.14,0
	c-0.01,0-0.04,0.03-0.04,0.04c0,0.03,0.01,0.06,0.03,0.07c0.03,0.02,0.06,0.02,0.1,0.01C2.74,5.08,2.77,5.05,2.81,5.03z"/>
<path class="st1" d="M6.51,3.73c-0.03,0.19-0.13,0.34-0.19,0.5c-0.01,0-0.03-0.01-0.04-0.01c0.05-0.15,0.1-0.3,0.16-0.48
	c-0.11,0.03-0.2,0.04-0.28,0.07C6.13,3.82,6.13,3.86,6.11,3.89c-0.07,0.14-0.13,0.28-0.2,0.41c0,0.01-0.01,0.01-0.04,0.04
	c0.02-0.18,0.1-0.33,0.17-0.49c-0.05,0-0.08,0-0.11,0.01C5.77,3.89,5.66,3.99,5.55,4.1C5.5,4.16,5.44,4.22,5.39,4.28
	C5.37,4.31,5.36,4.34,5.35,4.37C5.33,4.36,5.31,4.34,5.3,4.33C5.31,4.3,5.32,4.27,5.34,4.24c0.09-0.15,0.18-0.3,0.27-0.44
	c0.01-0.02,0.04-0.04,0.06-0.05c0.2-0.06,0.4-0.11,0.6-0.16c0.01,0,0.02,0,0.04,0C6.08,3.71,5.78,3.69,5.63,3.95
	c0.28-0.2,0.6-0.29,0.93-0.38C6.87,3.49,7.19,3.35,7.53,3.4c0,0.01,0,0.02,0.01,0.03C7.19,3.53,6.84,3.64,6.51,3.73z"/>
<path class="st1" d="M4.63,4.79c0.17-0.16,0.33-0.3,0.49-0.44c0.01,0.01,0.02,0.01,0.02,0.02C5.12,4.4,5.1,4.43,5.08,4.46
	C5.04,4.52,4.99,4.57,5.04,4.64C5.08,4.7,5.16,4.7,5.22,4.67C5.26,4.65,5.3,4.62,5.34,4.61c0.15-0.05,0.29-0.11,0.44-0.16
	c0.4-0.11,0.81-0.2,1.21-0.33c0.18-0.06,0.34-0.19,0.52-0.28c0.02-0.01,0.05-0.01,0.07-0.02C7.57,3.85,7.56,3.87,7.54,3.89
	C7.29,4.09,7,4.21,6.7,4.3c-0.5,0.15-0.99,0.3-1.5,0.43C5.04,4.78,4.86,4.79,4.69,4.81C4.68,4.81,4.66,4.8,4.63,4.79z"/>
<path class="st1" d="M12.92,2.13c-0.06,0.01-0.08-0.03-0.09-0.09c-0.05-0.37-0.13-0.74-0.27-1.09c-0.01-0.02,0-0.05,0.01-0.08
	c0.05,0.01,0.1,0.01,0.14,0.03c0.02,0.01,0.03,0.04,0.04,0.07c0.17,0.33,0.3,0.68,0.4,1.04c0.02,0.07,0.01,0.11-0.07,0.11
	C13.03,2.11,12.99,2.12,12.92,2.13z"/>
<path class="st1" d="M13.96,1.24c0.33,0.22,0.62,0.47,0.86,0.81c-0.06,0.01-0.1,0.01-0.13,0.01c-0.12,0-0.24,0-0.35-0.01
	c-0.03,0-0.08-0.03-0.09-0.05c-0.1-0.24-0.19-0.49-0.28-0.74C13.97,1.26,13.97,1.25,13.96,1.24z"/>
<path class="st1" d="M10.37,2.13c0.01-0.02,0.02-0.04,0.03-0.05c0.26-0.32,0.52-0.64,0.76-0.97c0.2-0.27,0.5-0.35,0.81-0.4
	c0.05-0.01,0.11-0.01,0.16-0.01c0.01,0,0.03,0,0.04,0.02c-0.02,0.01-0.05,0.02-0.07,0.02c-0.38,0.04-0.67,0.23-0.89,0.54
	C11.03,1.51,10.84,1.75,10.67,2C10.6,2.11,10.51,2.16,10.37,2.13z"/>
<path class="st1" d="M10.97,2.08c0.05-0.15,0.18-0.22,0.31-0.24c0.22-0.04,0.45-0.03,0.66,0.1C11.63,2.05,11.3,2.04,10.97,2.08z"/>
<path class="st1" d="M9.85,5.61c1.48-0.21,2.95-0.42,4.43-0.62c0,0.01,0,0.02,0,0.02c-1.48,0.21-2.95,0.42-4.43,0.63
	C9.85,5.63,9.85,5.62,9.85,5.61z"/>
<path class="st1" d="M8.4,3.73c0.26-0.19,0.65-0.16,0.91,0.07c0.29,0.25,0.47,0.57,0.52,0.95c0.03,0.24,0.02,0.48,0.03,0.72
	c0,0.01-0.01,0.02-0.03,0.03c0-0.04-0.01-0.07-0.01-0.11c0.01-0.27,0-0.54-0.08-0.81C9.66,4.31,9.52,4.05,9.29,3.86
	C9.04,3.65,8.77,3.6,8.47,3.71C8.45,3.72,8.42,3.73,8.4,3.73z"/>
<path class="st1" d="M10.57,2.31c0.08-0.11,0.14-0.23,0.23-0.34c0.22-0.29,0.45-0.58,0.68-0.87c0.12-0.15,0.29-0.23,0.48-0.27
	c0.4-0.08,0.8-0.08,1.2-0.02c-0.03,0-0.06,0-0.1,0c-0.04,0-0.07-0.01-0.11-0.01c-0.28,0.01-0.56,0-0.84,0.03
	c-0.31,0.03-0.55,0.19-0.74,0.44c-0.26,0.34-0.51,0.69-0.76,1.03c-0.01,0.01-0.01,0.02-0.02,0.03C10.58,2.32,10.58,2.32,10.57,2.31z
	"/>
<path class="st1" d="M7.98,4.13C7.97,4.15,7.96,4.17,7.95,4.18C7.73,4.44,7.61,4.74,7.57,5.07C7.53,5.34,7.54,5.62,7.53,5.9
	c0,0.12-0.01,0.13-0.13,0.15C7.24,6.06,7.08,6.08,6.92,6.08C6.98,6.07,7.04,6.06,7.1,6.05C7.2,6.03,7.29,6.02,7.39,6
	c0.07-0.01,0.09-0.04,0.09-0.11C7.46,5.61,7.47,5.32,7.52,5.04c0.06-0.31,0.16-0.6,0.36-0.85C7.9,4.16,7.93,4.13,7.96,4.11
	C7.97,4.11,7.97,4.12,7.98,4.13z"/>
<path class="st1" d="M7.5,3.62c-0.16,0.24-0.36,0.4-0.53,0.4c0.05-0.1,0.09-0.19,0.14-0.27c0.04-0.06,0.06-0.1-0.04-0.14
	C7.22,3.57,7.33,3.54,7.45,3.5c0,0.01,0.01,0.01,0.01,0.02C7.33,3.65,7.19,3.77,7.11,3.94C7.28,3.88,7.37,3.72,7.5,3.62z"/>
<path class="st1" d="M7.79,4.84c-0.08,0.3-0.12,0.6-0.08,0.91c0.05,0.39,0.2,0.72,0.52,0.95c0.03,0.02,0.07,0.04,0.1,0.06
	C8.37,6.78,8.4,6.8,8.43,6.82C8.26,6.77,8.12,6.68,8,6.54C7.7,6.18,7.64,5.76,7.67,5.31c0.01-0.13,0.04-0.26,0.07-0.38
	C7.75,4.9,7.78,4.87,7.79,4.84L7.79,4.84z"/>
<path class="st1" d="M2.3,4.96c-0.13-0.03-0.27-0.07-0.4-0.1c0,0.01-0.01,0.01-0.01,0.02C2.05,5.15,2.16,5.49,2.53,5.6
	c-0.17,0-0.31-0.06-0.39-0.19C2.03,5.25,1.94,5.08,1.85,4.92C1.83,4.89,1.84,4.85,1.85,4.83C1.86,4.81,1.9,4.81,1.93,4.82
	c0.13,0.03,0.25,0.07,0.38,0.11C2.3,4.94,2.3,4.95,2.3,4.96z"/>
<path class="st1" d="M2.93,3.9C2.9,3.96,2.88,4,2.87,4.04c-0.26-0.03-0.5-0.06-0.75-0.09c0-0.02,0-0.03,0-0.05
	C2.38,3.87,2.64,3.9,2.93,3.9z"/>
<path class="st1" d="M13.5,3.73c0.27-0.03,0.53-0.06,0.8-0.1c0.03,0,0.05,0,0.08,0c0.1,0,0.17,0.06,0.18,0.15
	c0.01,0.09-0.04,0.16-0.14,0.19c0-0.01-0.01-0.01-0.01-0.02c0.06-0.07,0.09-0.14,0.04-0.23c-0.04-0.08-0.13-0.07-0.2-0.06
	c-0.18,0.02-0.37,0.04-0.55,0.06C13.64,3.73,13.57,3.73,13.5,3.73C13.5,3.73,13.5,3.73,13.5,3.73z"/>
<path class="st1" d="M6.48,5.03c0.34,0.15,0.5,0.42,0.64,0.72C7.12,5.76,7.11,5.76,7.1,5.77C7.08,5.74,7.06,5.72,7.04,5.69
	C6.9,5.44,6.74,5.21,6.48,5.06C6.48,5.06,6.48,5.05,6.48,5.03z"/>
<path class="st1" d="M6.92,4.78c0.04-0.06,0.06-0.11,0.1-0.15C7.07,4.56,7.1,4.57,7.16,4.63c0.02,0.02,0.05,0.04,0.08,0.06
	C7.25,4.71,7.28,4.73,7.3,4.75c0,0.01-0.01,0.02-0.01,0.03C7.18,4.78,7.06,4.78,6.92,4.78z"/>
<path class="st1" d="M10.8,2.47c-0.06,0.01-0.12,0.02-0.18,0.03c-0.05,0.01-0.08,0.03-0.05,0.08c0.04,0.08,0.09,0.16,0.13,0.24
	c-0.06,0.04-0.12,0.03-0.16-0.05c-0.04-0.08-0.06-0.17-0.03-0.26c0.02-0.06,0.04-0.07,0.09-0.06c0.07,0,0.13,0,0.2,0
	C10.8,2.46,10.8,2.47,10.8,2.47z"/>
<path class="st1" d="M12.1,2.12c-0.25,0.08-0.52,0.04-0.78,0.07c0-0.01,0-0.03,0-0.04c0.26-0.02,0.52-0.05,0.78-0.07
	C12.1,2.09,12.1,2.1,12.1,2.12z"/>
<path class="st1" d="M6.68,4.14C6.68,4.11,6.69,4.07,6.7,4.04c0.03-0.1,0.06-0.21,0.09-0.31C6.8,3.71,6.84,3.7,6.86,3.69
	c0.01,0,0.03,0.03,0.03,0.04C6.83,3.87,6.77,4.01,6.71,4.15C6.7,4.15,6.69,4.15,6.68,4.14z"/>
<path class="st1" d="M16.04,2.58c0.14,0.12,0.26,0.25,0.34,0.43C16.31,3,16.07,2.7,16.04,2.58z"/>
<path class="st1" d="M11.18,5.31c-0.07,0.02-0.15,0.04-0.22,0.05c-0.3,0.04-0.61,0.08-0.91,0.13c-0.01,0-0.02,0-0.04-0.02
	C10.4,5.41,10.79,5.36,11.18,5.31L11.18,5.31z"/>
<path class="st1" d="M14.92,2.03c-0.18-0.2-0.36-0.4-0.56-0.61C14.58,1.61,14.79,1.78,14.92,2.03z"/>
<path class="st1" d="M1.94,4.1C1.93,3.91,1.9,3.71,2.02,3.52C1.99,3.73,1.97,3.92,1.94,4.1z"/>
<path class="st1" d="M12.97,2.71c-0.05,0.09-0.17,0.1-0.26,0.02C12.79,2.66,12.87,2.67,12.97,2.71z"/>
<path class="st1" d="M11.18,5.31c0.28-0.04,0.56-0.08,0.84-0.12c0,0.01,0,0.01,0,0.02c-0.09,0.01-0.18,0.03-0.26,0.04
	C11.57,5.27,11.37,5.29,11.18,5.31C11.18,5.31,11.18,5.31,11.18,5.31z"/>
<path class="st1" d="M4.82,5.02c-0.18,0-0.36,0-0.54,0c0,0,0-0.01,0-0.01C4.46,5,4.64,4.99,4.82,4.98C4.82,4.99,4.82,5.01,4.82,5.02
	z"/>
<path class="st1" d="M1.99,4.4c0.11,0.08,0.23,0.17,0.33,0.24C2.21,4.66,1.99,4.5,1.99,4.4z"/>
<path class="st1" d="M9.92,4.46c0.06-0.09,0.02-0.25,0.17-0.29C10,4.25,10.04,4.4,9.92,4.46z"/>
<path class="st1" d="M14.77,2.65c0.09-0.03,0.17-0.06,0.26-0.1c-0.01,0.03-0.01,0.06-0.03,0.07C14.94,2.67,14.86,2.69,14.77,2.65z"
	/>
<path class="st1" d="M12.26,5.16c0.19-0.03,0.37-0.05,0.56-0.08c0,0.01,0,0.01,0,0.02c-0.19,0.03-0.38,0.05-0.56,0.08
	C12.26,5.17,12.26,5.16,12.26,5.16z"/>
<path class="st1" d="M8.76,2.49C8.6,2.52,8.43,2.54,8.27,2.57C8.43,2.53,8.59,2.47,8.76,2.49C8.76,2.49,8.76,2.49,8.76,2.49z"/>
<path class="st1" d="M5.71,4.09c0.05-0.04,0.1-0.08,0.14-0.11C5.81,4.1,5.79,4.11,5.71,4.09z"/>
<path class="st1" d="M13.63,0.95c-0.1-0.03-0.19-0.06-0.29-0.09c0-0.01,0-0.01,0-0.02c0.1,0.03,0.19,0.06,0.29,0.08
	C13.63,0.93,13.63,0.94,13.63,0.95z"/>
<path class="st1" d="M7.8,4.84c0.02-0.09,0.04-0.17,0.06-0.26c0.01,0,0.02,0.01,0.03,0.01C7.85,4.68,7.82,4.76,7.8,4.84
	C7.79,4.84,7.8,4.84,7.8,4.84z"/>
<path class="st0" d="M11.05,8.58c0.03,0.02,0.07,0.04,0.1,0.07c-0.03,0.04-0.06,0.09-0.1,0.11C11,8.78,10.94,8.78,10.88,8.78
	c-0.04,0-0.09,0.04-0.1-0.03c-0.01-0.06,0-0.12,0.08-0.14c0.06-0.01,0.12-0.01,0.18-0.02C11.04,8.59,11.04,8.58,11.05,8.58z"/>
<path class="st0" d="M15.18,8.23c0.02-0.14,0.03-0.25,0.05-0.36c0-0.02,0.03-0.05,0.06-0.06c0.06-0.03,0.12-0.04,0.18-0.06
	c0.06-0.02,0.09,0.01,0.09,0.06c-0.01,0.09-0.03,0.17-0.05,0.26c-0.01,0.03-0.04,0.06-0.06,0.07C15.36,8.17,15.28,8.2,15.18,8.23z"
	/>
<path class="st0" d="M3.21,8.52C3.28,8.42,3.33,8.33,3.4,8.25c0.02-0.02,0.06-0.03,0.08-0.03c0.04,0,0.08,0.02,0.12,0.02
	C3.73,8.27,3.74,8.29,3.67,8.4C3.66,8.42,3.64,8.44,3.63,8.46C3.51,8.62,3.39,8.64,3.21,8.52z"/>
<path d="M8.26,5.49c0.18-0.01,0.2,0.02,0.13,0.18C8.35,5.78,8.28,5.88,8.21,5.98C8.16,6.04,8.12,6.04,8.1,5.96
	C8.06,5.84,8.04,5.72,8.01,5.59C8,5.54,8.03,5.51,8.08,5.5C8.14,5.5,8.2,5.49,8.26,5.49z"/>
<path d="M8.44,4.54c0.02,0.07,0.05,0.13,0.06,0.2c0.02,0.09,0.02,0.19,0.03,0.29c0,0.02-0.01,0.05-0.03,0.06
	c-0.02,0.01-0.05,0-0.06-0.01C8.36,5,8.28,4.92,8.21,4.84c-0.01-0.01-0.01-0.05,0-0.06c0.06-0.08,0.12-0.16,0.18-0.25
	C8.41,4.53,8.42,4.54,8.44,4.54z"/>
<path d="M8.73,5.84C8.75,5.89,8.77,5.95,8.79,6C8.8,6.04,8.81,6.09,8.82,6.13c0.01,0.06,0.02,0.13,0.01,0.19
	C8.81,6.37,8.6,6.39,8.52,6.37C8.58,6.19,8.64,6.02,8.7,5.84C8.71,5.84,8.72,5.84,8.73,5.84z"/>
<path d="M8.87,5.09C8.88,4.91,8.89,4.74,8.9,4.55C9.01,4.6,9.07,4.69,9.12,4.79c0.01,0.01,0.01,0.03,0,0.04
	C9.07,4.94,9,5.03,8.9,5.1C8.89,5.1,8.88,5.1,8.87,5.09z"/>
<path d="M9.12,5.82C9.07,5.74,9.02,5.66,8.97,5.57c-0.03-0.05,0-0.09,0.06-0.1c0.19-0.04,0.23-0.01,0.18,0.18
	C9.2,5.71,9.18,5.76,9.17,5.81C9.15,5.81,9.14,5.82,9.12,5.82z"/>
<path d="M8.48,5.31c-0.14,0-0.27-0.02-0.4-0.07C8.05,5.22,8.06,5.13,8.06,5.07c0.03,0,0.07-0.01,0.1,0.01
	c0.08,0.04,0.17,0.09,0.25,0.14c0.03,0.02,0.06,0.05,0.08,0.07C8.49,5.29,8.48,5.3,8.48,5.31z"/>
<path d="M8.88,5.7C8.96,5.81,9.03,5.92,9.1,6.04C9.11,6.05,9.08,6.1,9.06,6.13C9.04,6.12,9,6.11,8.99,6.09
	c-0.04-0.06-0.08-0.13-0.11-0.2C8.86,5.84,8.85,5.77,8.84,5.71C8.86,5.71,8.87,5.7,8.88,5.7z"/>
<path d="M9.24,5.09c0,0.1-0.03,0.16-0.12,0.17C9.07,5.27,9.03,5.3,8.99,5.31c-0.02,0-0.05-0.01-0.07-0.02
	c0.01-0.02,0.01-0.04,0.03-0.06c0.07-0.06,0.13-0.11,0.2-0.17C9.17,5.05,9.2,5.04,9.22,5.05C9.23,5.05,9.24,5.08,9.24,5.09z"/>
<path d="M8.7,4.93C8.69,4.87,8.69,4.81,8.68,4.74C8.67,4.69,8.65,4.64,8.63,4.58C8.63,4.56,8.61,4.53,8.61,4.51
	c0-0.02,0.01-0.04,0.03-0.05c0.02,0,0.06,0.01,0.06,0.02c0.03,0.15,0.09,0.3,0.03,0.45C8.72,4.93,8.71,4.93,8.7,4.93z"/>
<path d="M8.29,6.21C8.36,6.09,8.43,5.97,8.5,5.84c0.04,0.12-0.09,0.37-0.19,0.39C8.31,6.23,8.3,6.22,8.29,6.21z"/>
<path d="M8.57,5.58c0.03-0.02,0.05-0.05,0.06-0.05c0.03,0.02,0.06,0.05,0.07,0.08c0,0.02-0.03,0.05-0.05,0.07
	C8.62,5.65,8.59,5.62,8.57,5.58z"/>
<path d="M8.59,5.4c-0.06-0.02-0.1-0.04-0.04-0.1C8.58,5.29,8.58,5.26,8.6,5.24c0.01-0.01,0.03-0.02,0.04-0.03
	c0,0.02,0.02,0.03,0.01,0.04C8.64,5.3,8.61,5.35,8.59,5.4z"/>
<path d="M8.86,5.42C8.82,5.44,8.8,5.47,8.77,5.49C8.76,5.47,8.73,5.44,8.73,5.43C8.75,5.41,8.77,5.38,8.8,5.37
	C8.81,5.36,8.83,5.39,8.86,5.42z"/>
<path d="M8.78,5.19C8.8,5.23,8.83,5.25,8.83,5.27c0,0.01-0.03,0.03-0.05,0.04C8.76,5.3,8.74,5.28,8.74,5.26
	C8.73,5.24,8.76,5.22,8.78,5.19z"/>
<path d="M15.02,5.2C15.01,5.09,15,4.99,14.99,4.89c0-0.07,0.14-0.13,0.19-0.08c0.02,0.02,0.03,0.06,0.02,0.09
	c-0.03,0.07-0.07,0.14-0.11,0.22C15.08,5.13,15.05,5.16,15.02,5.2z"/>
<path d="M15.39,5.1c0.05,0.04,0.12,0.25,0.1,0.3c-0.02,0.05-0.13,0.08-0.22,0.06C15.31,5.34,15.35,5.22,15.39,5.1z"/>
<path d="M15.3,4.36c-0.01,0.04-0.02,0.08-0.04,0.12c-0.03-0.03-0.07-0.06-0.1-0.1c-0.07-0.08-0.05-0.17,0.01-0.25
	c0.01-0.02,0.03-0.04,0.04-0.03c0.02,0.01,0.04,0.03,0.04,0.05C15.27,4.21,15.28,4.28,15.3,4.36z"/>
<path d="M15.5,4.31c0-0.04,0-0.08,0.01-0.12c0-0.02,0.03-0.05,0.05-0.05c0.02,0,0.05,0.02,0.06,0.04c0.03,0.09,0.04,0.18-0.03,0.26
	c-0.02,0.02-0.04,0.03-0.06,0.04c-0.01-0.02-0.03-0.04-0.03-0.07C15.49,4.38,15.49,4.35,15.5,4.31C15.49,4.31,15.5,4.31,15.5,4.31z"
	/>
<path d="M15.72,4.75c-0.02,0.08-0.03,0.17-0.05,0.28c-0.09-0.07-0.14-0.13-0.13-0.21c0.01-0.04,0.09-0.06,0.14-0.09
	C15.7,4.74,15.71,4.74,15.72,4.75z"/>
<path d="M15.33,4.65c-0.11,0.04-0.23,0.02-0.29-0.06c-0.02-0.02-0.01-0.06-0.02-0.1c0.03,0,0.06,0,0.09,0.01
	C15.18,4.55,15.25,4.6,15.33,4.65z"/>
<path d="M15.51,4.95c0.05,0.08,0.1,0.15,0.15,0.23c0.01,0.01,0,0.04,0,0.05c-0.01,0.01-0.04,0.02-0.05,0.01
	C15.53,5.22,15.47,5.03,15.51,4.95z"/>
<path d="M15.51,4.65c0.07-0.07,0.13-0.13,0.18-0.19c0.01,0,0.02,0.01,0.03,0.01c-0.01,0.04,0,0.09-0.02,0.12
	C15.67,4.64,15.61,4.67,15.51,4.65z"/>
<path d="M15.38,4.32c0-0.04-0.02-0.09-0.01-0.13c0.03-0.08-0.01-0.12-0.07-0.17c0.03-0.01,0.06-0.02,0.08-0.01
	c0.02,0,0.05,0.04,0.05,0.05c0,0.09-0.02,0.17-0.03,0.26C15.39,4.32,15.39,4.32,15.38,4.32z"/>
<path d="M15.27,5.14c-0.03,0.08-0.05,0.16-0.08,0.24c0,0.01-0.03,0.02-0.04,0.02c0-0.01-0.02-0.03-0.01-0.04
	c0.04-0.08,0.08-0.15,0.12-0.22C15.26,5.13,15.27,5.14,15.27,5.14z"/>
<path d="M15.29,4.76c0.06,0.02,0.09,0.03,0.13,0.04c-0.02,0.03-0.03,0.07-0.05,0.1C15.34,4.86,15.32,4.82,15.29,4.76z"/>
<path d="M15.43,4.66c-0.07-0.04-0.07-0.04,0-0.14C15.43,4.56,15.43,4.6,15.43,4.66z"/>
<path d="M3.68,5.16C3.49,5.15,3.31,5.14,3.12,5.13c-0.07,0-0.14,0-0.21-0.01c-0.02,0-0.05-0.06-0.05-0.08
	C2.88,5,2.92,4.95,2.94,4.96c0.17,0.01,0.34,0.03,0.51,0.05c0.06,0.01,0.12,0,0.17,0.01c0.1,0.01,0.1,0.01,0.07,0.11
	C3.68,5.13,3.68,5.15,3.68,5.16z"/>
<path d="M2.81,5.03C2.77,5.05,2.74,5.08,2.72,5.08c-0.03,0.01-0.07,0-0.1-0.01C2.6,5.06,2.59,5.02,2.59,4.99
	c0-0.01,0.03-0.04,0.04-0.04c0.05,0.01,0.09-0.08,0.14,0C2.78,4.98,2.79,5.01,2.81,5.03z"/>
</svg>
