<?xml version="1.0" encoding="UTF-8"?>
<svg id="Layer_1" data-name="Layer 1" xmlns="http://www.w3.org/2000/svg" viewBox="0 0 18 18">
  <defs>
    <style>
      .cls-1 {
        fill: #cfcfce;
        fill-rule: evenodd;
      }
    </style>
  </defs>
  <path class="cls-1" d="m8.96,11.4c.07-.04.09-.1.14-.17.55-.89,1.01-1.74,2.02-2.23.27-.13,2.97-1.15,3.33-1.2.03.97.13,1.77-.09,2.72-.35,1.54-1.26,2.56-2.77,3.01-1.51.45-3.57.44-5.09.02-.75-.21-1.29-.52-1.83-1.04-1.1-1.08-1.13-2.43-1.15-3.9,0-.3.03-.4.06-.67.21.03.63.21.84.28.74.27,1.86.57,2.43.87.25.14.47.27.67.43,1.15.94,1.22,1.61,1.44,1.87h0Zm-4.83-5.15c.18-.66,1.17-1.36,1.83-1.63,1.74-.73,5.38-.76,7.04.55.18.14.72.67.79.94-.18.05-.5.24-.69.33-.66.32-1.49.63-2.1.96-.8.44-1.64,1.31-1.95,2.13-.14-.07-.38-.44-.49-.57-.15-.18-.31-.4-.47-.55-.18-.18-.31-.33-.52-.5-.56-.44-1.34-.77-2.02-1.04l-1.42-.62h0Zm4.13-3.17c-4.02.14-6.95,2-6.55,6.66.16,1.84.91,3.25,2.47,4.14,2.65,1.53,8.34,1.42,10.51-.62,1.15-1.08,1.79-2.78,1.6-4.99-.38-4.47-4.23-5.33-8.03-5.2h0Z"/>
</svg>