<?xml version="1.0" encoding="UTF-8"?>
<svg id="Layer_1" data-name="Layer 1" xmlns="http://www.w3.org/2000/svg" viewBox="0 0 18 18">
  <defs>
    <style>
      .cls-1 {
        fill: #cfcfce;
        fill-rule: evenodd;
      }
    </style>
  </defs>
  <path class="cls-1" d="m4.38,11.76c.11-.06.96-.37,1.14-.44.5-.19,3.37-1.28,3.48-1.28.1,0,1.01.36,1.17.42l2.3.86c.23.08.99.34,1.13.44,0,.19-.68.94-.78,1.04-2.13,2.15-5.59,2.09-7.67-.01-.17-.17-.73-.82-.77-1.03h0Zm-.14-.21c-.14-.29-.35-.83-.43-1.12-.13-.47-.2-.94-.2-1.47.01-2.61,1.94-4.94,4.68-5.3.13-.02.25-.03.38-.04.18-.01.28-.05.25.16-.08.62-.25,1.5-.36,2.13l-.36,2.14c-.05.32-.04.42-.24.59-.31.25-.61.5-.91.75-.18.15-2.63,2.17-2.75,2.24l-.05-.07h0Zm9.76-.53c-.09.21-.2.39-.29.58-.1-.04-.77-.6-.9-.71l-2.59-2.12c-.21-.18-.33-.22-.37-.43-.12-.6-.23-1.39-.33-2.02-.03-.19-.43-2.58-.43-2.72,1.87,0,3.54,1.04,4.49,2.53.9,1.41,1.1,3.32.42,4.89h0Zm.92-1.56c.17-1.89-.62-3.41-1.49-4.41-.81-.93-2.18-1.82-3.96-1.97-2.37-.2-4.66,1.11-5.72,3.14-2.01,3.85.61,8.36,4.77,8.69,1.85.14,3.44-.6,4.41-1.49.49-.45.93-.94,1.31-1.66.36-.68.59-1.39.67-2.3h0Z"/>
</svg>