<?xml version="1.0" encoding="UTF-8"?>
<svg id="Layer_1" data-name="Layer 1" xmlns="http://www.w3.org/2000/svg" viewBox="0 0 18 18">
  <defs>
    <style>
      .cls-1 {
        fill: #cfcfce;
        fill-rule: evenodd;
      }
    </style>
  </defs>
  <path class="cls-1" d="m7.39,4.28c-.22.37-.98,2.29-1.16,2.73-.12.31-.23.64-.35.95-.05-.04-.09-.12-.12-.18l-.58-1c-.04-.07-.08-.13-.12-.2-.04-.06-.1-.14-.12-.19-.1.05-.15.14-.23.21-.09.08-.39.41-.4.5-.05.49-.09,3.65.02,3.86l.3.36s.08.07.11.11c.08.09.37.41.44.45-.02-.55-.07-1.11-.08-1.67-.01-.58-.03-1.17-.02-1.75l.25.41c.11.2.67,1.21.72,1.25.05-.07.27-.73.32-.87.11-.29.21-.59.33-.88.08-.21.63-1.65.69-1.72v7.07c.39.04.84.03,1.22.03V4.24c-.41,0-.81.02-1.23.04h0Zm.8-.73c.88-.03,1.8-.01,2.68.05.27.02.35.02.53.17l1.07.98c.24.22.46.44.69.68l.34.35c.06.07.1.11.17.18l.32.35c.15.15.38.41.42.61.13.76.07,3.21.02,3.97-.02.24-.03.39-.16.53l-.24.27s-.05.05-.08.08l-.33.36c-.11.12-.22.23-.33.35-.44.47-.9.89-1.38,1.35-.03.03-.06.05-.1.08-.19.16-.44.46-.69.5-.78.13-3.21.07-3.98.02-.27-.02-.35-.02-.53-.16-.19-.15-.37-.33-.54-.48l-.53-.5c-.23-.22-.78-.76-1.03-1.03l-.32-.35c-.18-.19-.55-.53-.59-.78-.06-.36-.06-.92-.07-1.3-.02-.88-.01-1.8.05-2.67.02-.28.02-.35.17-.53.27-.33.68-.75.98-1.07.51-.54.86-.86,1.39-1.35.18-.17.53-.54.78-.58.35-.06.93-.06,1.31-.07h0Zm-5.12,6.22c.01.47.03.95.06,1.42.02.28.12.36.24.51l.35.39c.17.2.53.56.72.76.24.25.49.5.74.73l.38.37c.11.12.26.24.38.35.12.11.47.45.61.5.09.04.2.04.31.05,1.25.09,3.04.1,4.32,0,.28-.02.38-.1.52-.23l.78-.71c.07-.06.13-.11.2-.18l1.99-2.08c.07-.08.1-.11.15-.22.04-.1.05-.18.06-.3.08-1.17.1-3.11,0-4.32-.02-.24-.14-.39-.25-.5l-.35-.39c-.06-.07-.12-.13-.18-.2-.4-.46-1.5-1.54-2.05-2.03-.14-.12-.46-.44-.61-.51-.35-.15-2.7-.13-3.19-.12-.47.01-.96.02-1.43.06-.36.03-.63.38-.88.6-.29.24-1.26,1.21-1.5,1.46l-.82.87s-.05.06-.08.1c-.23.24-.37.36-.39.71-.07.94-.09,1.95-.06,2.9h0Zm6.33-5.4c0,3.09-.02,6.21,0,9.29v.1c.25.02,1-.01,1.24-.03.25-.02.29,0,.43-.13l.44-.4c.05-.05.09-.09.15-.14.3-.26,1.15-1.11,1.41-1.39l.27-.29c.1-.1.18-.2.27-.3.14-.15.11-.19.12-.43.02-.38.06-1.34.04-1.64h-1.64c-.02.11,0,.66,0,.82h.79c.01.18-.01.44-.02.63-.01.21-.02.18-.24.42-.05.06-.12.12-.16.17-.38.43-1.01,1.03-1.42,1.42l-.45.4c-.02-.36,0-1.85,0-2.3v-5.41c.06.03.28.24.34.3l.65.61c.29.27.38.37.63.63.05.05.11.11.16.16.06.06.09.1.15.16l.3.33c.12.12.03.36.09.54h.82c.02-.1,0-.36-.01-.47-.02-.4-.01-.32-.19-.54l-.6-.65c-.08-.07-.16-.17-.24-.25l-1.01-.99s-.08-.08-.12-.12l-.4-.36c-.1-.08-.14-.17-.31-.18-.15-.01-.31-.02-.46-.03-.23-.01-.79-.06-.98-.03v.11h0Z"/>
</svg>