<?xml version="1.0" encoding="UTF-8"?>
<svg id="Layer_1" data-name="Layer 1" xmlns="http://www.w3.org/2000/svg" viewBox="0 0 18 18">
  <defs>
    <style>
      .cls-1 {
        fill: #cfcfce;
        fill-rule: evenodd;
      }
    </style>
  </defs>
  <path class="cls-1" d="m8.99,11.03h-4.57c-.66,1.08-1.36,2.29-2,3.39-.09.15-.23.36-.29.51h4.56c.08-.04.11-.15.16-.22l1.58-2.68c.09-.15.52-.91.58-.98l2.01,3.4c.05.09.1.17.14.25.04.07.1.2.16.24h4.56c-.05-.13-.46-.8-.57-.98-.21-.36-1.54-2.66-1.72-2.92h-4.57c.03-.09.52-.9.58-1.01.2-.34.39-.66.59-1,.12-.21,1.16-1.95,1.16-1.98,0-.04-1.74-2.96-2.04-3.47-.05-.09-.25-.45-.3-.5-.05.05-.25.4-.3.49l-2.04,3.49c-.02.06.22.41.26.49.1.17.19.33.29.49.2.33.39.66.59.99.08.14,1.14,1.89,1.18,2.01h0Z"/>
</svg>