<?xml version="1.0" encoding="UTF-8"?>
<svg id="Layer_1" data-name="Layer 1" xmlns="http://www.w3.org/2000/svg" viewBox="0 0 18 18">
  <defs>
    <style>
      .cls-1 {
        fill: #cfcfce;
        fill-rule: evenodd;
      }
    </style>
  </defs>
  <path class="cls-1" d="m3.71,10.7c-.33-.02-1.37-.1-1.58.04.05.35.65.06,1.03.34.2.14.35.57.5.82.47.81,1.2,1.6,2.01,2.08,3.08,1.79,6.64.76,8.28-2.07.39-.67.3-.89,1.04-.97.52-.06.42,0,.51-.15-.03-.06.03-.11-.33-.11h-1.29c-1.36,4.1-6.92,4.89-9.41,1.42-.47-.66-.65-1.25-.76-1.4h0Zm.89-.95h.31c.05-.24.06-1.41,0-1.64h-.33s.02,1.64.02,1.64h0Zm7.55-1.22c.12.09.33.46.39.62h-.78c.07-.16.27-.5.39-.62h0Zm-.81,1.23c.23-.26.06-.3.54-.29.27,0,.53,0,.8,0,.37.16-.08.3.66.29-.1-.31-.83-1.26-.96-1.64-.46-.01-.39-.08-.59.25l-.83,1.39h.38Zm2.89-1.2c.23.09.57.52.77.71.55.55.32.47.91.49.03-.34.05-1.34,0-1.65h-.34s0,1.2,0,1.2c-.81-.51-.76-1.26-1.68-1.18v1.63s.34,0,.34,0l.02-.67v-.53h0Zm-12.15,0c.22.11.58.52.77.72.54.57.37.49.92.49v-1.65s-.36,0-.36,0v1.19c-.87-.58-.76-1.25-1.69-1.18v1.64s.35,0,.35,0v-1.21h0Zm6.73-.04c.24-.14,1.22-.05,1.57-.07v-.31c-.36-.04-.83-.02-1.21-.02-.44,0-.71.02-.77.42-.12.93,1.28.36,1.69.64.04.43-.81.21-1.66.26l.02.33c.41.01.83,0,1.25,0,.42,0,.75-.03.79-.46.04-.46-.32-.55-.74-.55-.78,0-.99.1-.95-.24h0Zm-1.17-.07v-.33c-.9,0-1.99-.18-1.97.5.02.8,1.2.31,1.71.54v.21c-.25.12-1.13.05-1.67.08v.31c.62,0,1.75.13,1.97-.21.15-.22.08-.54-.07-.68-.42-.39-1.53.22-1.56-.4l1.6-.02h0Zm-3.98-1.25c.16-.09.39-.82.81-1.42.17-.24.29-.38.52-.59l.56-.5c1.8-1.47,4.61-1.45,6.52-.01.64.48,1.55,1.49,1.81,2.53h1.3c.36,0,.29-.04.33-.11-.1-.15-.33-.11-.55-.14-1.08-.14-.35-.7-2.25-2.48-2.32-2.17-6.38-1.89-8.52.76-.49.6-.82,1.47-1.05,1.61-.4.25-.94-.03-1.01.31.01,0,.03.01.04.02,0,0,.03.01.04.02l1.46.03h0Z"/>
</svg>