<?xml version="1.0" encoding="UTF-8"?>
<svg id="Layer_1" data-name="Layer 1" xmlns="http://www.w3.org/2000/svg" viewBox="0 0 18 18">
  <defs>
    <style>
      .cls-1 {
        fill: #cfcfce;
        fill-rule: evenodd;
      }
    </style>
  </defs>
  <path class="cls-1" d="m6.84,9.97c.3.19,5.23-.03,6.11.07-.17.52-.34.89-.61,1.29-.82,1.21-2.44,1.95-4.01,1.69-1.9-.32-3.59-2.1-3.41-4.35l3.39.19-1.31.92c-.21.15-.11-.01-.16.19h0Zm-1.78-2.01c.04-.41.42-1.04.61-1.31.28-.4.57-.69.97-.98.75-.54,1.9-.91,3.06-.71,2.12.36,3.65,2.47,3.38,4.33-.25.08-2.84-.16-3.37-.18.06-.1.62-.47.75-.55.18-.11.7-.39.71-.58-.47-.14-5.21-.04-6.1-.04h0Zm-.71,0c-.2,0-.76-.04-.92.02-.16.06-.38.36-.35.55l1.16.07c.06.86-.01,1.17.27,2,.55,1.62,2.07,2.84,3.77,3.1,2.76.41,4.88-1.49,5.37-3.66l.98-.04c.1-.08.31-.37.3-.5-.17-.08-.15-.05-.59-.08-.19-.01-.39-.02-.58-.04-.09-.86.01-1.16-.29-2.01-.22-.63-.52-1.02-.84-1.46-.12-.16-.17-.17-.3-.31-1.93-2.01-5.62-1.82-7.32.81-.34.53-.48.87-.66,1.55h0Z"/>
</svg>