<?xml version="1.0" encoding="UTF-8"?>
<svg id="Layer_1" data-name="Layer 1" xmlns="http://www.w3.org/2000/svg" viewBox="0 0 18 18">
  <defs>
    <style>
      .cls-1 {
        fill: #cfcfce;
        fill-rule: evenodd;
      }
    </style>
  </defs>
  <path class="cls-1" d="m9,12.16c-.92,0-1.32-2.11-1.31-3.12.43,0,.86.05,1.31.05s.88-.04,1.31-.05c.01,1.01-.39,3.12-1.31,3.12h0Zm.69,1.73c.05-.1.12-.13.22-.25.19-.21.35-.47.48-.74.49-.98.69-2.35.72-3.46.01-.59-.08-.5.26-.55,1.33-.21,4.02-.97,3.98-2.64.08.05.06.04.14.14.58.8.93,1.68.83,2.72-.28,2.98-3.97,4.71-6.63,4.77h0Zm-1.37,0c-1.86-.04-4.19-.95-5.39-2.24-1.08-1.16-1.62-2.65-.99-4.2.12-.3.43-.89.65-1.13.05-.06,0-.02.07-.06-.02,1.02.9,1.58,1.63,1.93.61.29,1.32.5,2.01.64.63.13.6.03.6.27,0,1,.09,1.9.35,2.81.42,1.51.97,1.78,1.07,1.98h0Zm-.52-6.24c-.04-.26.25-1.08.35-1.3.52-1.11,1.27-1.02,1.72.02.1.23.38,1.01.34,1.28-.75.08-1.66.08-2.41,0h0Zm-.78-.1c-.63-.02-1.69-.39-2.16-.65-.67-.36-1.17-1-.39-1.64,1.75-1.45,7.6-1.37,9.12.03,1.46,1.35-1.81,2.25-2.58,2.27-.18-.97-.7-3.28-1.99-3.28-1.29,0-1.81,2.31-1.99,3.28h0ZM.47,9.42c.22,1.9,1.8,3.17,3.15,3.89,3.25,1.73,8.18,1.63,11.3-.32,1.18-.74,2.86-2.22,2.6-4.41-.22-1.9-1.81-3.18-3.16-3.89-1.6-.84-3.69-1.29-5.81-1.22-2.13.07-3.99.62-5.49,1.54C1.9,5.73.22,7.26.47,9.42H.47Z"/>
</svg>