<?xml version="1.0" encoding="UTF-8"?>
<svg id="Layer_1" data-name="Layer 1" xmlns="http://www.w3.org/2000/svg" viewBox="0 0 18 18">
  <defs>
    <style>
      .cls-1 {
        fill: #cfcfce;
        fill-rule: evenodd;
      }
    </style>
  </defs>
  <path class="cls-1" d="m13.88,5.63c-.18.24-.37.35-.54.6,1.53,2.63.7,5.27-1.1,6.73-2.93,2.37-7.98.82-8.34-3.55-.22-2.59,1.55-4.89,4.06-5.42,1.7-.36,2.68.13,3.84.7l.58-.54c-.62-.82-3-1.24-4.36-1.01-3.9.66-6.13,4.87-4.38,8.44,1.84,3.76,6.81,4.44,9.54,1.67.43-.44.51-.47.92-1.13,1.28-2.06,1.07-5.13-.22-6.47h0Zm-4.74,3.66c0-.52-.04-.59.24-.88h-.95c.19.34-.02-.06.15.18.16.21.13.48-.04.71-.31.42.11-.26-.12.14h1.43v-.46c-.4.25-.06.29-.72.32h0Zm1.4.14c.48,0,.52.05.7-.18.1-.13.22-.48.38-.63.19-.17.11.04.23-.16l-.71-.07c.1.18.41.12-.15.75-.45-.68-.32-.33-.1-.72l-1.06-.02c.12.23.39.15.7,1.03h0Zm-6.05-1.03s.06.08.07.09c.31.29.41.36.63.94.74,0,.56.08.87-.5.28-.51.23-.23.43-.53h-.71c.07.13.35.21-.17.75l-.31-.46.23-.28h-1.06Zm8.44.88c-.29.04-.46,0-.45-.37.01-.33.18-.38.44-.35.1.3.09.4.01.72h0Zm-.92-.29c.07.64,1.48.65,1.46-.08-.02-.75-1.55-.71-1.46.08h0Zm-4.72.31c-.25-.33-.25-.81.28-.75.13.39.18.67-.28.75h0Zm-.53-.76c-.32,1,.73,1.11,1.18.77.31-.24.22-.7-.11-.85-.37-.17-.8-.01-1.06.08h0Zm5.31-5.06c.18.08.3.15.47.26l.47.39-.77.82.82.84.82-.77.67.92c.21-.03.04.07.16-.07v-2.54h-1.41c-.69,0-1.27-.13-1.24.16h0Z"/>
</svg>