<?xml version="1.0" encoding="UTF-8"?>
<svg id="Layer_1" data-name="Layer 1" xmlns="http://www.w3.org/2000/svg" viewBox="0 0 18 18">
  <defs>
    <style>
      .cls-1 {
        fill: #cfcfce;
        fill-rule: evenodd;
      }
    </style>
  </defs>
  <path class="cls-1" d="m14.04,7.13s.01,0,.03.03c.12.2.28,1.07.3,1.27.05.51.03,1.04-.06,1.52-.44,2.38-2.54,4.43-5.3,4.43-3.63,0-6.19-3.56-5.14-6.95.02-.07.06-.21.1-.27,0,0,0,0,0-.01,0,0,0,0,0-.01.09.2.21.42.31.63l2.16,4.36c.21.42.41.84.62,1.24.17.33.32.29.46-.04.09-.21.19-.43.29-.64l1.08-2.42c.06-.14.11-.21.2,0l1.37,3.07c.05.11.09.25.22.26.15.01.19-.12.24-.22.21-.42.41-.82.62-1.24l1.86-3.75c.21-.41.41-.85.62-1.24h0Zm-5.51,2.03c-.19,0-.18.1-.25.26-.05.12-.1.23-.15.35l-.59,1.38c-.17.38-.22.69-.35.42-.86-1.76-1.75-3.53-2.63-5.3-.11-.21-.1-.18.24-.61.34-.43,1.12-1.16,1.6-1.36.05.06.92,2.02,1.03,2.27l.9,2c.1.24.09.18.71.18.52,0,.51.05.61-.19l1.93-4.27c.22.05.9.62,1.08.78.16.14.3.3.45.48.13.15.28.34.39.53.01.06-2.3,4.62-2.62,5.27-.05.1-.1.27-.2.31-.1-.07-.9-1.97-1.04-2.28-.07-.15-.05-.23-.24-.23h-.9Zm-1.27-5.24c.11-.08.61-.2.79-.23.75-.15,1.57-.11,2.31.09.12.03.28.1.4.12-.01.1-.16.4-.21.51-.07.17-.15.32-.21.48l-1.08,2.43c-.05.11-.15.4-.24.46-.1-.05-.2-.35-.25-.47l-.65-1.45c-.14-.33-.29-.65-.43-.97l-.42-.96h0Zm1.25-.83c-.86.08-1.64.32-2.3.67-.34.18-.63.38-.89.59-1.55,1.21-2.38,3.16-2.22,5.16.24,3.08,2.98,5.69,6.4,5.4.86-.07,1.62-.31,2.29-.67,1.24-.65,2.29-1.82,2.77-3.15.29-.8.43-1.62.36-2.57-.09-1.18-.56-2.34-1.25-3.19-.09-.11-.24-.31-.34-.39-.14-.12-.24-.25-.38-.37l-.4-.33c-1.14-.84-2.56-1.28-4.03-1.15h0Z"/>
</svg>